<svg xmlns="http://www.w3.org/2000/svg" xmlns:xlink="http://www.w3.org/1999/xlink" width="744" height="401" viewBox="0 0 744 401">
  <defs>
    <clipPath id="clip-path">
      <rect id="Rectángulo_42593" data-name="Rectángulo 42593" width="28.61" height="39.333" fill="none"/>
    </clipPath>
    <clipPath id="clip-path-2">
      <rect id="Rectángulo_42595" data-name="Rectángulo 42595" width="155.729" height="89.913" fill="none"/>
    </clipPath>
    <clipPath id="clip-path-3">
      <rect id="Rectángulo_42596" data-name="Rectángulo 42596" width="6.243" height="235.551" fill="none"/>
    </clipPath>
    <clipPath id="clip-path-4">
      <rect id="Rectángulo_42598" data-name="Rectángulo 42598" width="56.708" height="85.679" fill="none"/>
    </clipPath>
    <clipPath id="clip-path-5">
      <rect id="Rectángulo_42599" data-name="Rectángulo 42599" width="55.71" height="76.351" fill="none"/>
    </clipPath>
    <clipPath id="clip-path-6">
      <rect id="Rectángulo_42601" data-name="Rectángulo 42601" width="27.112" height="37.29" fill="none"/>
    </clipPath>
    <clipPath id="clip-path-7">
      <rect id="Rectángulo_42603" data-name="Rectángulo 42603" width="14.395" height="31.096" fill="none"/>
    </clipPath>
    <clipPath id="clip-path-8">
      <rect id="Rectángulo_42604" data-name="Rectángulo 42604" width="21.435" height="26.506" fill="none"/>
    </clipPath>
  </defs>
  <g id="Grupo_137093" data-name="Grupo 137093" transform="translate(-639 -11423)">
    <rect id="Rectángulo_42590" data-name="Rectángulo 42590" width="744" height="401" transform="translate(639 11423)" fill="#fff"/>
    <g id="Grupo_136593" data-name="Grupo 136593" transform="translate(646.636 214.999)">
      <path id="Trazado_197371" data-name="Trazado 197371" d="M25.793,351.883l3.346,1.911a4.3,4.3,0,0,0,3.878,0L187.684,264.5a1.177,1.177,0,0,0,0-2.232l-3.323-1.9a4.3,4.3,0,0,0-3.879.005L25.79,349.65a1.178,1.178,0,0,0,0,2.233" transform="translate(177.376 11202.711)" fill="#e0e0e0"/>
      <path id="Trazado_197372" data-name="Trazado 197372" d="M303.214,384.965c-18.433,10.107-48.318,10.107-66.751,0s-18.433-26.491,0-36.6,48.319-10.1,66.751,0,18.433,26.494,0,36.6" transform="translate(156.624 11194.22)" fill="#e0e0e0"/>
      <path id="Trazado_197373" data-name="Trazado 197373" d="M357.783,309.4c-14.221,7.8-37.277,7.8-51.5,0s-14.222-20.437,0-28.236,37.277-7.8,51.5,0,14.221,20.44,0,28.236" transform="translate(148.962 11201.093)" fill="#e0e0e0"/>
      <path id="Trazado_197374" data-name="Trazado 197374" d="M356.2,271.8c-.055-4.573,3.138-14.083,7.812-20.077s12.081-10.424,17.4-8.674c4.956,1.629,4.5,8.11-1.437,12.472s-14.873,9.86-17.417,17.309l-5.416,9.167Z" transform="translate(142.601 11204.522)" fill="#27debf"/>
      <g id="Grupo_136563" data-name="Grupo 136563" transform="translate(498.804 11447.183)" opacity="0.1">
        <g id="Grupo_136562" data-name="Grupo 136562">
          <g id="Grupo_136561" data-name="Grupo 136561" clip-path="url(#clip-path)">
            <path id="Trazado_197375" data-name="Trazado 197375" d="M356.2,271.8c-.055-4.573,3.138-14.083,7.812-20.077s12.081-10.424,17.4-8.674c4.956,1.629,4.5,8.11-1.437,12.472s-14.873,9.86-17.417,17.309l-5.416,9.167Z" transform="translate(-356.203 -242.661)"/>
          </g>
        </g>
      </g>
      <path id="Trazado_197376" data-name="Trazado 197376" d="M355.868,278.422a.335.335,0,0,0,.3-.272c2.874-15.645,15.348-28.483,22.871-31.377a.334.334,0,0,0,.192-.431.329.329,0,0,0-.431-.192c-7.667,2.948-20.371,16-23.288,31.879a.333.333,0,0,0,.268.388.316.316,0,0,0,.091,0" transform="translate(142.674 11204.158)" fill="#fff"/>
      <path id="Trazado_197377" data-name="Trazado 197377" d="M358.513,290.335c.7-2.579,3.792-6.858,8.827-10.422,5.571-3.943,12.657-5.811,14.259-8.847,1.925-3.647-1.17-7.035-6.932-6.25s-15.811,8.779-17.289,20.65Z" transform="translate(142.478 11202.208)" fill="#27debf"/>
      <path id="Trazado_197378" data-name="Trazado 197378" d="M357.319,288.021a.334.334,0,0,0,.285-.225c4.625-13.429,14.77-18.244,19.489-18.914a.335.335,0,0,0,.284-.378.329.329,0,0,0-.378-.284c-5.217.741-15.306,5.652-20.027,19.359a.334.334,0,0,0,.207.424.329.329,0,0,0,.14.017" transform="translate(142.521 11201.839)" fill="#fff"/>
      <path id="Trazado_197379" data-name="Trazado 197379" d="M30.236,322.339l-.679-.392a4.349,4.349,0,0,1-1.967-3.408V89.192a4.352,4.352,0,0,1,1.967-3.409L177.337.471a4.353,4.353,0,0,1,3.934,0l.679.393a4.346,4.346,0,0,1,1.967,3.407V233.619a4.348,4.348,0,0,1-1.967,3.407L34.17,322.339a4.348,4.348,0,0,1-3.934,0" transform="translate(177.104 11230)" fill="#27debf"/>
      <g id="Grupo_136568" data-name="Grupo 136568" transform="translate(205.273 11230.001)" opacity="0.4">
        <g id="Grupo_136567" data-name="Grupo 136567">
          <g id="Grupo_136566" data-name="Grupo 136566" clip-path="url(#clip-path-2)">
            <path id="Trazado_197380" data-name="Trazado 197380" d="M183.967,3.954c-.134-1.02-.959-1.391-1.948-.824L34.235,88.451a4.06,4.06,0,0,0-1.391,1.463l-4.6-2.658a4,4,0,0,1,1.391-1.473L177.4.472a4.346,4.346,0,0,1,3.936,0l.679.392a4.407,4.407,0,0,1,1.948,3.09" transform="translate(-28.238 -0.001)" fill="#fff"/>
          </g>
        </g>
      </g>
      <g id="Grupo_136571" data-name="Grupo 136571" transform="translate(204.696 11317.256)" opacity="0.1">
        <g id="Grupo_136570" data-name="Grupo 136570">
          <g id="Grupo_136569" data-name="Grupo 136569" clip-path="url(#clip-path-3)">
            <path id="Trazado_197381" data-name="Trazado 197381" d="M33.837,332.73a4.372,4.372,0,0,1-3.6-.155l-.69-.391a4.354,4.354,0,0,1-1.956-3.41V99.429a3.937,3.937,0,0,1,.576-1.937l4.6,2.658a4.116,4.116,0,0,0-.576,1.937V331.442c0,1.123.711,1.649,1.638,1.288" transform="translate(-27.594 -97.492)"/>
          </g>
        </g>
      </g>
      <path id="Trazado_197382" data-name="Trazado 197382" d="M51.9,252.644l-.679-.392a4.349,4.349,0,0,1-1.967-3.408V207.622a4.348,4.348,0,0,1,1.967-3.407l134.168-77.533a4.347,4.347,0,0,1,3.934,0l.679.392a4.348,4.348,0,0,1,1.967,3.407V171.7a4.348,4.348,0,0,1-1.967,3.407L55.838,252.644a4.348,4.348,0,0,1-3.934,0" transform="translate(174.828 11216.749)" fill="#ebebeb"/>
      <path id="Trazado_197383" data-name="Trazado 197383" d="M192.022,130.164c-.134-1.02-.959-1.391-1.948-.824L55.9,206.881a4.06,4.06,0,0,0-1.391,1.463l-4.606-2.658a4,4,0,0,1,1.391-1.473l134.162-77.532a4.346,4.346,0,0,1,3.936,0l.679.392a4.407,4.407,0,0,1,1.948,3.09" transform="translate(174.76 11216.749)" fill="#fafafa"/>
      <path id="Trazado_197384" data-name="Trazado 197384" d="M55.506,262.122a4.368,4.368,0,0,1-3.6-.155l-.69-.391a4.355,4.355,0,0,1-1.957-3.41v-41.22a3.935,3.935,0,0,1,.577-1.937l4.6,2.658a4.116,4.116,0,0,0-.576,1.937v41.229c0,1.123.711,1.649,1.638,1.288" transform="translate(174.828 11207.425)" fill="#e0e0e0"/>
      <path id="Trazado_197385" data-name="Trazado 197385" d="M76.178,213.027c7.652-4.418,13.856-.981,13.855,7.678s-6.211,19.187-13.871,23.517-13.871.889-13.866-7.681,6.23-19.1,13.882-23.514" transform="translate(173.459 11207.836)" fill="#27debf"/>
      <path id="Trazado_197386" data-name="Trazado 197386" d="M51.9,315.062l-.679-.392a4.349,4.349,0,0,1-1.967-3.408V270.04a4.346,4.346,0,0,1,1.967-3.407L185.392,189.1a4.347,4.347,0,0,1,3.934,0l.679.392a4.348,4.348,0,0,1,1.967,3.407v41.223a4.348,4.348,0,0,1-1.967,3.407L55.838,315.062a4.348,4.348,0,0,1-3.934,0" transform="translate(174.828 11210.195)" fill="#ebebeb"/>
      <path id="Trazado_197387" data-name="Trazado 197387" d="M192.022,192.582c-.134-1.02-.959-1.391-1.948-.824L55.9,269.3a4.06,4.06,0,0,0-1.391,1.463L49.906,268.1a4,4,0,0,1,1.391-1.473L185.459,189.1a4.346,4.346,0,0,1,3.936,0l.679.392a4.407,4.407,0,0,1,1.948,3.09" transform="translate(174.76 11210.195)" fill="#fafafa"/>
      <path id="Trazado_197388" data-name="Trazado 197388" d="M55.506,324.54a4.371,4.371,0,0,1-3.6-.155l-.69-.391a4.355,4.355,0,0,1-1.957-3.41v-41.22a3.935,3.935,0,0,1,.577-1.937l4.6,2.658a4.115,4.115,0,0,0-.576,1.937v41.229c0,1.123.711,1.649,1.638,1.288" transform="translate(174.828 11200.872)" fill="#e0e0e0"/>
      <path id="Trazado_197389" data-name="Trazado 197389" d="M76.178,275.445c7.652-4.419,13.856-.981,13.855,7.677S83.822,302.31,76.162,306.64s-13.871.889-13.866-7.681,6.23-19.1,13.882-23.514" transform="translate(173.459 11201.282)" fill="#27debf"/>
      <path id="Trazado_197390" data-name="Trazado 197390" d="M51.9,148.259l-.679-.392a4.349,4.349,0,0,1-1.967-3.408V103.237a4.348,4.348,0,0,1,1.967-3.407L185.392,22.3a4.347,4.347,0,0,1,3.934,0l.679.392a4.348,4.348,0,0,1,1.967,3.407V67.318a4.348,4.348,0,0,1-1.967,3.407L55.838,148.259a4.347,4.347,0,0,1-3.934,0" transform="translate(174.828 11227.708)" fill="#ebebeb"/>
      <path id="Trazado_197391" data-name="Trazado 197391" d="M192.022,25.779c-.134-1.02-.959-1.391-1.948-.824L55.9,102.5a4.06,4.06,0,0,0-1.391,1.463L49.906,101.3A4,4,0,0,1,51.3,99.828L185.459,22.3a4.346,4.346,0,0,1,3.936,0l.679.392a4.407,4.407,0,0,1,1.948,3.09" transform="translate(174.76 11227.708)" fill="#fafafa"/>
      <path id="Trazado_197392" data-name="Trazado 197392" d="M55.506,157.737a4.368,4.368,0,0,1-3.6-.155l-.69-.391a4.356,4.356,0,0,1-1.957-3.41V112.562a3.935,3.935,0,0,1,.577-1.937l4.6,2.658a4.116,4.116,0,0,0-.576,1.937v41.229c0,1.123.711,1.649,1.638,1.288" transform="translate(174.828 11218.385)" fill="#e0e0e0"/>
      <path id="Trazado_197393" data-name="Trazado 197393" d="M76.178,108.642c7.652-4.419,13.856-.981,13.855,7.677s-6.211,19.188-13.871,23.518-13.871.889-13.866-7.681,6.23-19.1,13.882-23.515" transform="translate(173.459 11218.796)" fill="#27debf"/>
      <path id="Trazado_197394" data-name="Trazado 197394" d="M62.44,206.737l-.679-.392a4.349,4.349,0,0,1-1.967-3.408V161.715a4.346,4.346,0,0,1,1.967-3.407L195.928,80.774a4.349,4.349,0,0,1,3.935,0l.678.392a4.348,4.348,0,0,1,1.967,3.407V125.8a4.348,4.348,0,0,1-1.967,3.407L66.374,206.737a4.347,4.347,0,0,1-3.934,0" transform="translate(173.722 11221.568)" fill="#37474f"/>
      <path id="Trazado_197395" data-name="Trazado 197395" d="M202.558,84.257c-.134-1.02-.959-1.391-1.948-.824L66.439,160.974a4.06,4.06,0,0,0-1.391,1.463l-4.606-2.658a4,4,0,0,1,1.391-1.473L196,80.775a4.346,4.346,0,0,1,3.936,0l.679.392a4.407,4.407,0,0,1,1.948,3.09" transform="translate(173.654 11221.568)" fill="#455a64"/>
      <path id="Trazado_197396" data-name="Trazado 197396" d="M66.042,216.215a4.372,4.372,0,0,1-3.6-.155l-.69-.391a4.355,4.355,0,0,1-1.957-3.41V171.04a3.935,3.935,0,0,1,.577-1.937l4.6,2.658A4.113,4.113,0,0,0,64.4,173.7v41.229c0,1.123.711,1.649,1.638,1.288" transform="translate(173.722 11212.245)" fill="#263238"/>
      <path id="Trazado_197397" data-name="Trazado 197397" d="M86.714,167.12c7.652-4.418,13.856-.981,13.855,7.678S94.358,193.985,86.7,198.315s-13.871.889-13.866-7.681,6.23-19.1,13.882-23.514" transform="translate(172.354 11212.655)" fill="#f5f5f5"/>
      <path id="Trazado_197398" data-name="Trazado 197398" d="M87.671,191.137a1.516,1.516,0,0,1-1.7.085l-6.086-4.606c-.814-.612-.712-2.311.228-3.792s2.361-2.182,3.171-1.566l4.241,3.208,11.78-25.319c.737-1.581,2.143-2.64,3.142-2.371s1.216,1.773.482,3.352l-13.447,28.9a4.9,4.9,0,0,1-1.723,2.054l-.09.052" transform="translate(171.67 11213.544)" fill="#27debf"/>
      <path id="Trazado_197399" data-name="Trazado 197399" d="M212.563,150.762l-3.891-2.246v.01c-1.692-.972-3.761-.01-4.855.662l-2.427-1.4c-2.946-1.778-7.041,1.942-7.958,2.836l-1.05-.606v0c-3.124-1.884-8.8,3.156-8.8,3.156V134.421l2.466-1.195-3.924-2.269-.009-.005-.027-.015v0a3.526,3.526,0,0,0-3.5.365,11.037,11.037,0,0,0-4.993,8.648v43.47c-3.588-2.661-7.4-4.3-10.752-3.7a10.789,10.789,0,0,0-6.5,4.488c-1.651,2.911,1.073,4.737,4.583,8.75,3.478,3.978,6.546,8.769,9.715,11.725a17.152,17.152,0,0,0,5.466,3.725v5.666l3.856,2.226,25.482-19.164v-5.666s3.641-14.513,4.8-20.58c1.12-5.841,2.149-15.152.226-19.989l2.082-.141Z" transform="translate(163.636 11216.285)" fill="#27debf"/>
      <g id="Grupo_136576" data-name="Grupo 136576" transform="translate(319.491 11346.909)" opacity="0.4">
        <g id="Grupo_136575" data-name="Grupo 136575">
          <g id="Grupo_136574" data-name="Grupo 136574" clip-path="url(#clip-path-4)">
            <path id="Trazado_197400" data-name="Trazado 197400" d="M212.563,150.762l-3.891-2.246v.01c-1.692-.972-3.761-.01-4.855.662l-2.427-1.4c-2.946-1.778-7.041,1.942-7.958,2.836l-1.05-.606v0c-3.124-1.884-8.8,3.156-8.8,3.156V134.421l2.466-1.195-3.924-2.269-.009-.005-.027-.015v0a3.526,3.526,0,0,0-3.5.365,11.037,11.037,0,0,0-4.993,8.648v43.47c-3.588-2.661-7.4-4.3-10.752-3.7a10.789,10.789,0,0,0-6.5,4.488c-1.651,2.911,1.073,4.737,4.583,8.75,3.478,3.978,6.546,8.769,9.715,11.725a17.152,17.152,0,0,0,5.466,3.725v5.666l3.856,2.226,25.482-19.164v-5.666s3.641-14.513,4.8-20.58c1.12-5.841,2.149-15.152.226-19.989l2.082-.141Z" transform="translate(-155.855 -130.624)" fill="#fff"/>
          </g>
        </g>
      </g>
      <path id="Trazado_197401" data-name="Trazado 197401" d="M183.822,207.069,164.545,195.94l-8.442-4.875c-1.074,2.627,1.53,4.468,4.83,8.241,3.478,3.978,6.547,8.769,9.715,11.725a17.152,17.152,0,0,0,5.466,3.725v5.666l3.856,2.226,5.63-4.233c-.729-4.816-1.778-11.347-1.778-11.347" transform="translate(163.636 11209.939)" fill="#27debf"/>
      <path id="Trazado_197402" data-name="Trazado 197402" d="M179.537,143.272l-3.856-2.226v45.6l3.856.1Z" transform="translate(161.555 11215.191)" fill="#27debf"/>
      <path id="Trazado_197403" data-name="Trazado 197403" d="M213.319,155.788l2.987-2.2c-.064-.2-.125-.4-.2-.581l1.085-.074-2.4-.109-4-2.205a8.659,8.659,0,0,0-1.348.671l1.25.728Z" transform="translate(158.01 11214.187)" fill="#27debf"/>
      <path id="Trazado_197404" data-name="Trazado 197404" d="M201.509,155.14,204.315,153l-3.868-2.34a16.465,16.465,0,0,0-2.606,2.06l2.685,1.554Z" transform="translate(159.228 11214.181)" fill="#27debf"/>
      <path id="Trazado_197405" data-name="Trazado 197405" d="M194.953,155.167l-3.824-2.238.015-.036v4.845L195.6,156.1Z" transform="translate(159.933 11213.947)" fill="#27debf"/>
      <g id="Grupo_136579" data-name="Grupo 136579" transform="translate(319.493 11356.237)" opacity="0.15">
        <g id="Grupo_136578" data-name="Grupo 136578">
          <g id="Grupo_136577" data-name="Grupo 136577" clip-path="url(#clip-path-5)">
            <path id="Trazado_197406" data-name="Trazado 197406" d="M183.822,207.069,164.545,195.94l-8.442-4.875c-1.074,2.627,1.53,4.468,4.83,8.241,3.478,3.978,6.547,8.769,9.715,11.725a17.152,17.152,0,0,0,5.466,3.725v5.666l3.856,2.226,5.63-4.233c-.729-4.816-1.778-11.347-1.778-11.347" transform="translate(-155.857 -146.298)"/>
            <path id="Trazado_197407" data-name="Trazado 197407" d="M179.537,143.272l-3.856-2.226v45.6l3.856.1Z" transform="translate(-157.938 -141.046)"/>
            <path id="Trazado_197408" data-name="Trazado 197408" d="M213.319,155.788l2.987-2.2c-.064-.2-.125-.4-.2-.581l1.085-.074-2.4-.109-4-2.205a8.659,8.659,0,0,0-1.348.671l1.25.728Z" transform="translate(-161.483 -142.051)"/>
            <path id="Trazado_197409" data-name="Trazado 197409" d="M201.509,155.14,204.315,153l-3.868-2.34a16.465,16.465,0,0,0-2.606,2.06l2.685,1.554Z" transform="translate(-160.265 -142.056)"/>
            <path id="Trazado_197410" data-name="Trazado 197410" d="M194.953,155.167l-3.824-2.238.015-.036v4.845L195.6,156.1Z" transform="translate(-159.56 -142.29)"/>
          </g>
        </g>
      </g>
      <path id="Trazado_197411" data-name="Trazado 197411" d="M180.422,216.564V210.9a17.132,17.132,0,0,1-5.466-3.725c-3.168-2.956-6.237-7.747-9.715-11.725-3.509-4.014-6.235-5.841-4.583-8.751a10.785,10.785,0,0,1,6.5-4.488c3.348-.6,7.164,1.038,10.753,3.7v-43.47a11.036,11.036,0,0,1,4.992-8.648c2.758-1.591,4.992-.3,4.992,2.883v18.987s6.88-6.11,9.66-2.363c0,0,6.759-7.08,9.81-1.1,0,0,4.963-4.008,7.2.644s1.163,14.474,0,20.539-4.8,20.579-4.8,20.579v5.666Z" transform="translate(163.184 11216.024)" fill="#27debf"/>
      <path id="Trazado_197412" data-name="Trazado 197412" d="M191.144,166.157s.626-8.663,3.809-10.723l-.114.032a20.892,20.892,0,0,0-3.7,2.538v-.164a.2.2,0,0,0,0,.164Z" transform="translate(159.933 11213.681)" fill="#455a64"/>
      <path id="Trazado_197413" data-name="Trazado 197413" d="M201.939,155.408v7.925s.879-8.149,2.706-10.118a16.291,16.291,0,0,0-2.706,2.193" transform="translate(158.798 11213.913)" fill="#455a64"/>
      <path id="Trazado_197414" data-name="Trazado 197414" d="M212.9,154.29h0v7.954s.483-8.013,2.209-9.2a8.91,8.91,0,0,0-2.209,1.241" transform="translate(157.646 11213.931)" fill="#455a64"/>
      <path id="Trazado_197415" data-name="Trazado 197415" d="M181.1,124.246h0c-.619.357-1.121.145-1.121-.474v-6.289a2.326,2.326,0,0,1,1.121-1.769c.619-.357,1.121-.145,1.121.474v6.289a2.326,2.326,0,0,1-1.121,1.769" transform="translate(161.104 11217.869)" fill="#ebebeb"/>
      <path id="Trazado_197416" data-name="Trazado 197416" d="M170.082,135.879h0c-.438.758-1.148,1.168-1.586.916l-3.639-2.1c-.438-.252-.438-1.072,0-1.83s1.148-1.169,1.586-.916l3.639,2.1c.438.253.438,1.072,0,1.831" transform="translate(162.726 11216.154)" fill="#ebebeb"/>
      <path id="Trazado_197417" data-name="Trazado 197417" d="M165.518,150.8v.18a2.5,2.5,0,0,1-1.2,1.9l-4.979,2.875c-.666.384-1.206.157-1.206-.509v-.18a2.5,2.5,0,0,1,1.206-1.9l4.979-2.875c.665-.384,1.2-.156,1.2.509" transform="translate(163.397 11214.24)" fill="#ebebeb"/>
      <path id="Trazado_197418" data-name="Trazado 197418" d="M196.076,133.335v-.18a2.5,2.5,0,0,1,1.2-1.9l4.979-2.876c.666-.384,1.206-.157,1.206.509v.18a2.5,2.5,0,0,1-1.206,1.9l-4.979,2.874c-.665.384-1.2.156-1.2-.509" transform="translate(159.413 11216.54)" fill="#ebebeb"/>
      <path id="Trazado_197419" data-name="Trazado 197419" d="M191.689,123.157h0c-.438-.253-.438-1.073,0-1.831l3.639-6.3c.438-.759,1.147-1.168,1.586-.916s.438,1.072,0,1.831l-3.639,6.3c-.438.758-1.148,1.168-1.586.916" transform="translate(159.908 11218.027)" fill="#ebebeb"/>
      <path id="Trazado_197420" data-name="Trazado 197420" d="M348.6,288.919V287.9c-.4,1.195-2.264,6.338-5.091,8.915-2.246,2.049-5.311,4.416-6.09,6.7-.811,2.375,4.264,3.174,6.363,2.8a12.958,12.958,0,0,0,7.311-3.926c1.207-1.484,1.976-3.242,2.838-4.409s2.85-2.468,3.316-3.819a8.612,8.612,0,0,0-.408-3.738c-.329-1.259-.687-2.644-1.118-2.526,0,.154,0,.776,0,.776a5.626,5.626,0,0,1-3.56,1.2c-1.042.04-3.57-.166-3.561-.961" transform="translate(144.582 11199.773)" fill="#263238"/>
      <path id="Trazado_197421" data-name="Trazado 197421" d="M341.867,297.934c.7-.622,1.4-1.23,2.033-1.81a20.655,20.655,0,0,0,4.343-6.939,9.773,9.773,0,0,0,.747-3.747v-4.059h7.122v6.607h0v.176l-.036.018c-.343,1.48-3.61,5.417-5.468,7.983-1.245,1.721-3.61,3.91-6.436,4.287-2.678.358-4.047-.487-2.306-2.518" transform="translate(144.188 11200.457)" fill="#ffa8a7"/>
      <path id="Trazado_197422" data-name="Trazado 197422" d="M317.558,281.075v-1.018c-.4,1.195-2.265,6.338-5.091,8.915-2.246,2.049-5.311,4.415-6.09,6.7-.811,2.375,4.264,3.174,6.363,2.8a12.959,12.959,0,0,0,7.311-3.926c1.207-1.484,1.976-3.242,2.838-4.409s2.85-2.468,3.316-3.819a8.611,8.611,0,0,0-.408-3.738c-.33-1.259-.687-2.644-1.118-2.526,0,.153,0,.776,0,.776a5.626,5.626,0,0,1-3.56,1.2c-1.042.04-3.57-.166-3.561-.961" transform="translate(147.842 11200.597)" fill="#263238"/>
      <path id="Trazado_197423" data-name="Trazado 197423" d="M310.829,290.089c.7-.622,1.4-1.23,2.033-1.81a20.66,20.66,0,0,0,4.344-6.938,9.764,9.764,0,0,0,.747-3.748v-4.059h7.122v6.607h0v.176l-.036.018c-.343,1.48-3.61,5.417-5.468,7.983-1.245,1.721-3.61,3.91-6.436,4.287-2.678.358-4.047-.487-2.306-2.518" transform="translate(147.446 11201.28)" fill="#ffa8a7"/>
      <path id="Trazado_197424" data-name="Trazado 197424" d="M352.043,165.167c5.521,12.059-.2,54.539-.2,54.539.167,1.956,2.4,5.808,3.237,14.42.985,10.176-1.545,35.729-1.545,35.729a7.709,7.709,0,0,1-7.2.286s-6.788-38.484-8.064-48.6c-1.113-8.831-3.252-28.247-3.252-28.247l-6.076,28.2a52.49,52.49,0,0,1,1.925,8.716c.576,5.952-5.19,33.662-5.19,33.662s-2.458.9-7.122.215c0,0-2.04-36.773-2.578-43.943-.9-12.041,2.3-49.61,4.5-56.737Z" transform="translate(146.84 11212.844)" fill="#37474f"/>
      <path id="Trazado_197425" data-name="Trazado 197425" d="M335.772,194.921l-1.793-11.2s-7.583-1.572-11.023-4.8a19.615,19.615,0,0,0,8.968,5.958l2.014,8.623-3.52,26.111Z" transform="translate(146.092 11211.215)" fill="#263238"/>
      <path id="Trazado_197426" data-name="Trazado 197426" d="M325.924,118.15a10.2,10.2,0,0,0-9.061,4.06c-2.852,3.721-13.759,17.924-13.759,17.924s-16.077-8.046-16.868-9-.345-2.882-.129-3.943.578-3.42.814-4.082c.414-1.156-1.3-.844-2.306.236-1.032,1.107-1.455,3.193-1.959,3.558s-4.327-4.037-6.184-6.159-2.727-3.61-3.971-2.733c-.9.632-.321,1.892,1.01,3.711a23.478,23.478,0,0,1,1.719,2.409c.159.326-.332.586-.526.761-.361.322-1,.85-1.045,1.354a4.431,4.431,0,0,1-.051.824c-.173.605-.922.89-1.134,1.482-.152.429.016.909-.07,1.357-.055.288-.215.549-.267.838a2.006,2.006,0,0,0,.6,1.562c1.3,1.552,3.088,2.145,4.8,3.091,1.421.787,2.889,1.13,4.526,1.858s20.63,13.894,23.635,12.235,18.526-19.713,18.526-19.713c4.478-7.419,1.709-11.629,1.709-11.629" transform="translate(151.435 11217.637)" fill="#ffa8a7"/>
      <path id="Trazado_197427" data-name="Trazado 197427" d="M342.749,118.525h0c7.079.487,7.575,3.906,9.347,7.644a12.119,12.119,0,0,1,.334,9.124L347.5,149.562s2.31,5.583,4.991,10.857c-12.379,6.909-27.836,3.278-31.558-1.764-.158-1.07.8-9.43,1.388-14.891-2.18-5.469-2.756-8.936-1.836-12.551,1.707-6.711,8.336-13.249,11.269-13.011Z" transform="translate(146.396 11217.59)" fill="#f5f5f5"/>
      <path id="Trazado_197428" data-name="Trazado 197428" d="M336.11,108.606h2.747a14.507,14.507,0,0,0-.078-29.014h-2.591a14.507,14.507,0,0,0-.078,29.014" transform="translate(146.229 11221.644)" fill="#263238"/>
      <path id="Trazado_197429" data-name="Trazado 197429" d="M364.7,117.38h0a8.548,8.548,0,0,1-8.548-8.548v-18.3a8.548,8.548,0,0,1,8.548,8.547Z" transform="translate(142.606 11220.495)" fill="#263238"/>
      <path id="Trazado_197430" data-name="Trazado 197430" d="M357.646,86.9,355.5,90.344a1.969,1.969,0,0,0,2.791-.572,2.131,2.131,0,0,0-.648-2.872" transform="translate(142.675 11220.876)" fill="#263238"/>
      <path id="Trazado_197431" data-name="Trazado 197431" d="M327.039,86.75c-1.674.989-3.741,5.2-3.537,14.02.173,7.478,2.6,9.324,3.814,9.857s3.564.209,5.846-.172v4.488s-3.154,3.663-2.955,5.721,4.553,2.545,7.5.533a19.091,19.091,0,0,0,4.843-5.069V105.28a2.865,2.865,0,0,0,4.061.383c2.519-1.673,2.615-5.814,1.15-7.3s-4.622-1.016-5.211,1.038a18.024,18.024,0,0,1-8.485-2.529,13.618,13.618,0,0,1-7.03-10.121" transform="translate(146.036 11220.892)" fill="#ffa8a7"/>
      <path id="Trazado_197432" data-name="Trazado 197432" d="M333.767,100.207a.941.941,0,1,0,.988-.931.956.956,0,0,0-.988.931" transform="translate(144.957 11219.577)" fill="#263238"/>
      <path id="Trazado_197433" data-name="Trazado 197433" d="M332.295,107.4l-2.184.7a1.126,1.126,0,0,0,1.42.784,1.2,1.2,0,0,0,.763-1.48" transform="translate(145.341 11218.724)" fill="#f28f8f"/>
      <path id="Trazado_197434" data-name="Trazado 197434" d="M325.131,96.874l1.9-1.318a1.111,1.111,0,0,0-1.581-.325,1.216,1.216,0,0,0-.322,1.643" transform="translate(145.883 11220.022)" fill="#263238"/>
      <path id="Trazado_197435" data-name="Trazado 197435" d="M325.643,99.448a.941.941,0,1,0,.988-.932.956.956,0,0,0-.988.932" transform="translate(145.81 11219.656)" fill="#263238"/>
      <path id="Trazado_197436" data-name="Trazado 197436" d="M330.408,98.955l-.149,5.66-2.979-.923Z" transform="translate(145.638 11219.61)" fill="#f28f8f"/>
      <path id="Trazado_197437" data-name="Trazado 197437" d="M334.3,112.8c2.4-.315,7.352-1.736,8.123-3.692a5.062,5.062,0,0,1-1.734,2.5c-1.478,1.266-6.389,2.694-6.389,2.694Z" transform="translate(144.9 11218.544)" fill="#f28f8f"/>
      <g id="Grupo_136584" data-name="Grupo 136584" transform="translate(472.435 11344.536)" opacity="0.1">
        <g id="Grupo_136583" data-name="Grupo 136583">
          <g id="Grupo_136582" data-name="Grupo 136582" clip-path="url(#clip-path-6)">
            <path id="Trazado_197438" data-name="Trazado 197438" d="M340.284,162.785a7.473,7.473,0,0,0,5.571-9.114,3.179,3.179,0,0,0-.126-.389,2.434,2.434,0,0,0-2.507-1.662,7.226,7.226,0,0,0,3.094-4.612l1.505-8.944a10.431,10.431,0,0,0-.382-4.338l4.975-5.754.919.639a12.408,12.408,0,0,1-.2,7.709L348.2,150.589s2.31,5.583,4.991,10.857A32,32,0,0,1,326.74,163.2a36.088,36.088,0,0,0,13.544-.413" transform="translate(-326.74 -127.972)"/>
          </g>
        </g>
      </g>
      <path id="Trazado_197439" data-name="Trazado 197439" d="M368.064,154.155c-6.428-26.27-11.18-35.031-18.987-34.929-2.278,2.724-1.649,10.953,1.954,15.947,0,0,8.029,16.943,9.311,22.967,1.126,5.291,2.4,11.948,2.321,16.5a3.3,3.3,0,0,1-.893,2.164c-1.466,1.59-1.471,2.869-2.423,4.628-.743,1.376-1.556,1.89-1.325,2.2a1.777,1.777,0,0,0,2.411.178,9.079,9.079,0,0,0,1.826-1.752,18.225,18.225,0,0,1-1.448,4.873c-1.648,3.717-1.247,5.613,3.77,4.29,3.144-.83,5.119-3.448,5.589-11a58.435,58.435,0,0,0,.082-8.364c-.669-7.166-1.155-13.465-2.188-17.693" transform="translate(143.489 11217.482)" fill="#ffa8a7"/>
      <path id="Trazado_197440" data-name="Trazado 197440" d="M297.225,237.9c.687-25.567-1.362-31.694-8.168-36.378l-2.638,14.814s3.1,17.459,2.768,23.273c-.292,5.108-.79,11.5-2,15.628a3.125,3.125,0,0,1-1.354,1.752,17.873,17.873,0,0,0-3.738,3.564c-1.022,1.07-1.893,1.336-1.759,1.676a1.683,1.683,0,0,0,2.156.763,11.8,11.8,0,0,0,2.459-1.334,15.643,15.643,0,0,1-2.518,4.328c-2.432,2.979-2.537,4.81,2.37,4.854,3.074.027,5.528-1.87,7.842-8.646a55.142,55.142,0,0,0,2.161-7.608c1.176-6.7,2.3-12.571,2.416-16.687" transform="translate(150.567 11208.842)" fill="#b16668"/>
      <path id="Trazado_197441" data-name="Trazado 197441" d="M283.681,199.334a9.812,9.812,0,0,1,10.518,5.312c2.852,5.1,3.552,13.879,3.877,22.606,0,0-5.667,4.739-12.465,2.409Z" transform="translate(150.215 11209.084)" fill="#27debf"/>
      <g id="Grupo_136589" data-name="Grupo 136589" transform="translate(433.896 11408.294)" opacity="0.1">
        <g id="Grupo_136588" data-name="Grupo 136588">
          <g id="Grupo_136587" data-name="Grupo 136587" clip-path="url(#clip-path-7)">
            <path id="Trazado_197442" data-name="Trazado 197442" d="M283.681,199.334a9.812,9.812,0,0,1,10.518,5.312c2.852,5.1,3.552,13.879,3.877,22.606,0,0-5.667,4.739-12.465,2.409Z" transform="translate(-283.681 -199.21)"/>
          </g>
        </g>
      </g>
      <path id="Trazado_197443" data-name="Trazado 197443" d="M292.621,355.388c.516.2.646,1.178.724,3.132.06,1.479.376,4.06-1.356,4.575s-4.268.251-5.378-1.142c-1.385-1.739-2.322-3.27-4.3-5.392-1.715-1.841-3.57-3.559-4.262-6.142-.626-2.333-.1-3.346,1.488-4.024,2.188-.933,5.627,2.116,7.343,2.6,1.477.413,5.224,6.2,5.741,6.4" transform="translate(150.833 11193.649)" fill="#263238"/>
      <path id="Trazado_197444" data-name="Trazado 197444" d="M293.576,354.34v2.4a5.873,5.873,0,0,1-6.062.164c-.106-.232-.63-3.432-.63-3.432Z" transform="translate(149.879 11192.888)" fill="#b16668"/>
      <path id="Trazado_197445" data-name="Trazado 197445" d="M269.523,371.911s.688,2.086,1.06,3.911c.294,1.45.717,3.874.209,4.966s-2.489,1.794-5.56,1.771c-1.99-.015-5.09,1.335-7.213,2.52-2.192,1.223-6.751,1.71-9.07,1.438-2.733-.321-5.564-1.905-6.006-3.038s.145-2.306,6.585-5.051c.059-.025,8.953-2.918,12.069-6.356Z" transform="translate(154.505 11190.951)" fill="#263238"/>
      <path id="Trazado_197446" data-name="Trazado 197446" d="M271.724,369.013s-.009,1.78,0,2.8-1.193,2.533-4.3,2.422c-2.185-.078-3.71-.665-3.623-2.464v-2.594Z" transform="translate(152.304 11191.256)" fill="#b16668"/>
      <path id="Trazado_197447" data-name="Trazado 197447" d="M291.675,311.458a65.2,65.2,0,0,0-2.833-12.494s.857-10.779,1.267-21c.444-11.039-.023-24.916.186-27.67,0,0-35.623-7.208-36.258,5.553s1.406,45.248,1.828,50.853,1.39,10.565,2.548,19.652c1.143,8.968,4.348,30.146,4.348,30.146a8.413,8.413,0,0,0,7.926-.162s2.507-25.517,2.244-31.986a55.254,55.254,0,0,0-2.453-14.12s.676-10.523,1.272-19.675,1.228-13.55,1.367-17.532l.767-.38s.78,15.791,1.2,21.4,1.313,10.982,2.935,21.4c1.407,9.033,5.6,28.147,5.6,28.147,4.07,2.2,6.5-.288,6.5-.288s2.658-24,1.56-31.836" transform="translate(153.341 11203.934)" fill="#37474f"/>
      <path id="Trazado_197448" data-name="Trazado 197448" d="M275.368,274.978s8.641-4.258,12.967-8.1c0,0-4.016,5.658-9.287,8.167,0,0-1.875,19.616-1.865,19.227L276.1,274.948Z" transform="translate(151.088 11201.979)" fill="#263238"/>
      <path id="Trazado_197449" data-name="Trazado 197449" d="M266.775,194.561l2.108,11.6,10.48-.765-2.2-13.152Z" transform="translate(151.99 11209.815)" fill="#b16668"/>
      <path id="Trazado_197450" data-name="Trazado 197450" d="M289.082,205.3c-1.037-3.155-5.039-6.588-9.044-5.843a118.114,118.114,0,0,0-17.539,4.379c-3.666,1.309-7.006,4.479-7.309,16.539,0,0-1.229,28.116-1.25,33.553a44.451,44.451,0,0,0,24.075,2.374c11.018-2.407,12.347-6.977,12.347-6.977s.142-20.218-.188-28.95c-.28-7.419-.379-12.909-1.091-15.075" transform="translate(153.338 11209.069)" fill="#27debf"/>
      <path id="Trazado_197451" data-name="Trazado 197451" d="M257.463,179.065s-2.657,4.237-2.335,4.641,2.356.728,2.356.728Z" transform="translate(153.216 11211.199)" fill="#b16668"/>
      <path id="Trazado_197452" data-name="Trazado 197452" d="M265.108,165.89c-5.542,1.3-7.094,3.784-7.42,12.641-.34,9.254.669,12.139,1.911,13.356.84.821,5.4.871,7.681.185,2.858-.858,9.305-3.307,12.245-8.025,3.457-5.551,4.231-12.985.329-15.94-5.491-4.158-12.491-2.747-14.746-2.218" transform="translate(152.951 11212.652)" fill="#b16668"/>
      <path id="Trazado_197453" data-name="Trazado 197453" d="M266.163,195.249c1.88-1.512,1.712-2.487,1.712-2.487-1.349,1.259-6.34,2.34-8.043,2.017.695.679,3.939.828,6.331.47" transform="translate(152.719 11209.761)" fill="#9a4a4d"/>
      <path id="Trazado_197454" data-name="Trazado 197454" d="M257.635,167.59a11.3,11.3,0,0,0,5.156,4.115c1.063,1.211.477,5.932,2.348,6.682,0,0,.8-3.437,3.693-3.073,2.908.368,3.382,4.053,1.607,6.338s-3.5,1.464-3.5,1.464.2,4.88,2.425,7.6c0,0,2.481.742,6.987-.326,2.769-.656,6.628-4.224,8.2-7.945,3.325-7.872,3.411-14.891-1.612-16.881-.618-3.579-3.482-5.125-6.722-5.793-6.975-1.437-11.47,2.916-16.84,2.537-3.073-.217-3.648,2.021-1.743,5.283" transform="translate(153.065 11213.256)" fill="#263238"/>
      <path id="Trazado_197455" data-name="Trazado 197455" d="M286.13,167.272l3.286-2.039a1.934,1.934,0,1,0-3.286,2.039" transform="translate(149.988 11212.748)" fill="#263238"/>
      <path id="Trazado_197456" data-name="Trazado 197456" d="M257.358,204.3s-5.208.962-7.931,5.082-14.495,18.882-14.495,18.882-16.936-8.476-17.769-9.481-.364-3.036-.136-4.155.609-3.6.857-4.3c.436-1.218-1.367-.889-2.428.25-1.087,1.166-1.533,3.364-2.064,3.747s-4.559-4.253-6.516-6.489-2.872-3.8-4.183-2.879c-.944.665-.338,1.993,1.064,3.909a24.614,24.614,0,0,1,1.811,2.538c.168.343-.349.617-.555.8-.379.34-1.053.9-1.1,1.428a4.664,4.664,0,0,1-.053.868c-.183.637-.972.937-1.195,1.562-.161.451.017.958-.074,1.428-.058.3-.226.578-.28.882a2.116,2.116,0,0,0,.626,1.646c1.374,1.634,3.252,2.26,5.053,3.256,1.5.829,3.043,1.191,4.767,1.958s22.028,15.772,25.194,14.024,19.407-20.722,19.407-20.722a13.109,13.109,0,0,0,0-14.235" transform="translate(158.767 11208.55)" fill="#b16668"/>
      <path id="Trazado_197457" data-name="Trazado 197457" d="M263.548,203.618c-2.24.258-5.378-.158-9.765,4.555a137.218,137.218,0,0,0-9.875,12.706,12.441,12.441,0,0,0,9.82,9.245s7.684-7.872,9.82-12.205,2.638-11.376,0-14.3" transform="translate(154.392 11208.621)" fill="#27debf"/>
      <g id="Grupo_136592" data-name="Grupo 136592" transform="translate(398.3 11412.24)" opacity="0.1">
        <g id="Grupo_136591" data-name="Grupo 136591">
          <g id="Grupo_136590" data-name="Grupo 136590" clip-path="url(#clip-path-8)">
            <path id="Trazado_197458" data-name="Trazado 197458" d="M263.548,203.618c-2.24.258-5.378-.158-9.765,4.555a137.218,137.218,0,0,0-9.875,12.706,12.441,12.441,0,0,0,9.82,9.245s7.684-7.872,9.82-12.205,2.638-11.376,0-14.3" transform="translate(-243.909 -203.619)"/>
          </g>
        </g>
      </g>
    </g>
  </g>
</svg>
