<svg xmlns="http://www.w3.org/2000/svg" xmlns:xlink="http://www.w3.org/1999/xlink" width="744" height="380" viewBox="0 0 744 380">
  <defs>
    <clipPath id="clip-path">
      <rect id="Rect치ngulo_42609" data-name="Rect치ngulo 42609" width="634" height="378" fill="none"/>
    </clipPath>
  </defs>
  <g id="Grupo_137095" data-name="Grupo 137095" transform="translate(-639 -12888)">
    <rect id="Rect치ngulo_42608" data-name="Rect치ngulo 42608" width="744" height="380" transform="translate(639 12888)" fill="#fff"/>
    <g id="Grupo_136599" data-name="Grupo 136599" transform="translate(187.483 -29.876)">
      <g id="Grupo_136598" data-name="Grupo 136598" transform="translate(506.517 12917.876)">
        <g id="Grupo_136595" data-name="Grupo 136595">
          <g id="Grupo_136594" data-name="Grupo 136594" clip-path="url(#clip-path)">
            <path id="Trazado_197459" data-name="Trazado 197459" d="M197.592,153.653a31.084,31.084,0,0,0,1.616-11.122A149.558,149.558,0,0,0,199.936,127c-.016-9.581-.955-24.723-11.331-29.009a4.884,4.884,0,0,0-.35-.63c-7.505-11.2-21.06-14.437-33.686-16.163-2.763-.377-5.349.428-6.532,3.149a236.776,236.776,0,0,0-33.327-5.2c-20.531-1.645-41.35-.016-60.3,8.421C48.99,89.976,42.05,93.864,40.506,99.8c-10.921,4.141-12.48,20.765-14.457,30.519a5.5,5.5,0,0,0,.656,4.009,5.324,5.324,0,0,0-2.049,4.14c-.1,6.825-.4,13.834-.153,20.78-.1.476-.2.952-.306,1.426a5.493,5.493,0,0,0,.654,4.256,60.528,60.528,0,0,0,5.193,20.743c5.815,12.319,17.54,18.882,30.441,21.471a111.068,111.068,0,0,0,20.532,1.989,4.758,4.758,0,0,0,3.842,3.8c6.764,1.534,13.54,1.572,20.434,1.233,6.509-.321,13.032,0,19.525-.349a45.41,45.41,0,0,0,8.642-1.309,36.215,36.215,0,0,0,11.347.632,72.884,72.884,0,0,0,12.381-2.442,10.2,10.2,0,0,0,4.262,2.839c4.3,1.5,8.693-.2,12.457-2.35,8.241-4.715,15.521-11.388,19.283-20.187,4.452-10.411,4.441-21.978,4.592-33.1a5.2,5.2,0,0,0-.685-2.72c.063-.26.121-.52.181-.781a7.256,7.256,0,0,0,.313-.736m-33.974,25.387-.043-.041a23.623,23.623,0,0,0,1.308-2.343,26.25,26.25,0,0,1-1.265,2.384m-26.889-17.67c-.108-.189-.219-.375-.335-.556.143-.086.285-.175.43-.254.109.058.218.116.325.178-.143.209-.283.419-.42.632m27.111-10.016a53.851,53.851,0,0,0,1.439-6.137,58.62,58.62,0,0,1,.023,6.461,5,5,0,0,0-1.462-.324m-30.113,30.372c.039.1.087.188.128.284q-.523.422-1.066.817c.321-.362.635-.728.938-1.1m31.9-6.775.007,0c-.021.052-.042.106-.064.158.021-.051.038-.1.057-.156m-65.312-72.057q-.559-.138-1.128-.231l1.272-.026c-.048.086-.1.17-.144.257m25.753-10.187a18.132,18.132,0,0,0-1.445-1.438q2.2.293,4.39.636a24.131,24.131,0,0,0-2.945.8M112.5,90.287l-2.689-.408q1.516.08,3.029.186-.171.109-.34.222m69.365,95.162a5.028,5.028,0,0,0-.756-1.6,5.591,5.591,0,0,0,2.816-.219,32.917,32.917,0,0,1-1.637,4.015,17.164,17.164,0,0,0-.423-2.192" transform="translate(-9.801 -32.232)" fill="#dc4c1a"/>
            <path id="Trazado_197460" data-name="Trazado 197460" d="M926.087,129.4c-.21-7.623-1.079-15.463-5.105-22.038-5.575-9.105-15.889-13.853-25.77-16.846-13-3.937-26.82-4.806-40.333-4.917-11.65-.1-23.039.444-34.589-1.3-11.27-1.7-23.912-4.154-34.505,1.417-.063.034-.119.073-.179.108-11.936-5.545-20.162,15.814-22.875,24.891-2.361,7.9-3.083,15.884-3.211,24.073a4.212,4.212,0,0,0-2.926,2.6,92.44,92.44,0,0,0-6.441,45.24c.846,7.317,2.74,15.2,8.086,20.645a17.7,17.7,0,0,0,3.241,2.587q.46.835.97,1.612a10.479,10.479,0,0,0,1.014,1.914,6.314,6.314,0,0,0,2.2,2.008c7.269,7.187,18.529,9.3,29.662,10.236a3.935,3.935,0,0,0,1.768.2l.288-.036c4.153.3,8.254.474,12.08.72,16.608,1.065,33.2,2.442,49.842,2.807,7.617.167,15.667.107,23.268-1.531,8.458,5.683,18.8-.213,25.448-5.945,7.431-6.4,11.6-15.524,14.369-24.75,3.349-11.149,5.238-24.669.671-35.753-.068-.163-.151-.314-.229-.468.4-1.178.731-2.368,1.009-3.534a46.449,46.449,0,0,0,1.295-16.31,5.779,5.779,0,0,0,1.022-2.976,27.4,27.4,0,0,0-.069-4.655M781.9,96.244l0-.029c.054-.017.051.009,0,.029m3.7,4.371a6.528,6.528,0,0,0,2.463,1.364,7.168,7.168,0,0,0,.5,4.9q-.743.358-1.452.779a10.081,10.081,0,0,0-3.7-1.694,19.012,19.012,0,0,1,2.184-5.353m0,51.244c.428.4.88.768,1.347,1.123a27.726,27.726,0,0,0-1.766,7.549,51.9,51.9,0,0,1,.079-8.057c.116-.2.227-.41.34-.616m54.46,32.462a3.626,3.626,0,0,1-.414-.5c-.949-1.378-.852-2.291-.635-4.024a20.727,20.727,0,0,1,1.88-5.048,32.866,32.866,0,0,1,2.821-4.285,37.339,37.339,0,0,0-1.189,12.575q-1.246.629-2.463,1.277m30.388-28.108a22.178,22.178,0,0,1,.553,2.471c-1.215,1.72-2.363,3.488-3.444,5.285a15.451,15.451,0,0,0-4.682-7.33c.429-.129.856-.257,1.289-.363a11.04,11.04,0,0,1,6.284-.064m-13.079,15.128c-.268-.758-.557-1.517-.887-2.278-.091-.211-.156-.417-.236-.625q.206-.978.412-1.964c.122.2.21.314.178.188.162.5.455,1.68.415,1.438a14.257,14.257,0,0,1,.118,3.242m-45.689-15.223q.528-.1,1.055-.215c.193.5.374,1.012.533,1.547.071.741.172,1.473.313,2.189a20.337,20.337,0,0,0-4.62.017,42.371,42.371,0,0,1,2.718-3.537m1.635-15.526c-.051.025-.1.057-.149.083q.919-1.491,1.922-2.913.344.879.629,1.8a19,19,0,0,0-2.4,1.027M808,179.86a8.558,8.558,0,0,1-3.391,2.377,5.142,5.142,0,0,1-.946.227q2.182-1.288,4.336-2.6m20.24-40.657a20.509,20.509,0,0,1,1.052-1.818c.082.438.148.878.206,1.321-.418.17-.838.331-1.257.5m32.371,66.575c-.614.218-1.229.432-1.848.636q-1.439-.441-2.907-.824c1.594-.007,3.187.052,4.755.188m-28.617-92.091c-.024-.009-.045-.019-.07-.028-.493-.176-.984-.323-1.474-.449a15.819,15.819,0,0,0,2.137-3.8,6.49,6.49,0,0,1,1.882,2.45,3.941,3.941,0,0,1,.333,1.444c0,.037.006.061.008.094q-1.408.114-2.816.287m15.576,14.894a6.77,6.77,0,0,0-.8.581c-.872.746-1.724,1.526-2.561,2.33-.763.446-1.539.874-2.315,1.3a27.968,27.968,0,0,0-.756-8.432c.674,0,1.348.012,2.024.041.8.035,1.8.087,2.907.18a18.314,18.314,0,0,0,1.5,4M798.8,104.5l.033-.057c.051-.014.03.011-.033.057m.981.98a14.079,14.079,0,0,0,.075-1.773c.208-.144.413-.29.618-.439l1.789.165a15.443,15.443,0,0,0-1.567,2.386c-.3-.109-.614-.2-.925-.287,0-.017.008-.034.009-.052m46.253,7.989-.223-.021a15.219,15.219,0,0,0-.543-4.1c.3.078.606.154.908.236s.6.168.921.26a26.81,26.81,0,0,0-1.064,3.629m-47.514-8.783c-.258.162-.593.357-.794.464l-.068-.007c.131-.094.416-.284.9-.592-.015.051-.027.095-.038.136m107.8,14.943c-.173.078-.338.168-.506.255-.182-.091-.366-.178-.553-.257,0-.143,0-.287-.008-.431.4.084.8.179,1.188.291-.04.048-.082.093-.121.142m.922-11.322a26.9,26.9,0,0,0-4.367-.57,15.611,15.611,0,0,0-2.519-3.777,36.085,36.085,0,0,1,6.884,4.347h0M857.81,96.789c-.422.247-.834.512-1.241.786a4.6,4.6,0,0,0-.531-.787c.59,0,1.182,0,1.772,0" transform="translate(-305.658 -33.752)" fill="#118ebf"/>
            <path id="Trazado_197461" data-name="Trazado 197461" d="M569.418,113.5a6.04,6.04,0,0,0-5.083-3.973,5.442,5.442,0,0,0-5.439-5.361c-.082,0-.156.006-.237.006a4.406,4.406,0,0,0-.727-1.385,12.591,12.591,0,0,0-9.976-5.1c-4.245-1.854-8.388-3.955-12.728-5.6a83.991,83.991,0,0,0-21.413-4.6c-14.91-1.493-30-.064-44.943.094a157.458,157.458,0,0,0-19.226,1.548A6.323,6.323,0,0,0,448.585,89c-7.6-.224-27.437.4-30.036,9.451a23.567,23.567,0,0,0-7.412,13.2c-1.052,1.473-2.119,2.936-3.218,4.377-1.83,2.4-.361,6.17,1.994,7.574.018.011.037.019.056.029a6.064,6.064,0,0,0-.615.968c-9.556,18.734-7.488,42.532.9,62.183-1.959,9.006,5.533,18.723,11.443,25.039,6.9,7.373,17.322,12.347,27.486,10.686,8.685,5.6,22.188,4.35,31.578,3.907a5.678,5.678,0,0,0,5.361-4.064c.075-.333.155-.675.241-1.02,1.743-.537,3.45-1.105,5.047-1.519a5.633,5.633,0,0,0,2.1-1.013c.522.507,1.119.968,1.765,1.512a35.343,35.343,0,0,1,2.968,3.2c2.219,2.415,4.781,4.6,8.263,4.437a9.437,9.437,0,0,0,1.633-.239,6.1,6.1,0,0,0,5.1,3.219c7.17.174,14.2-1.865,21.053-3.717,6.189-1.673,12.2-4.243,16.374-9.283a27.014,27.014,0,0,0,3.746-6.1c10.549-8.968,14.214-25.738,16.218-38.474,3.048-19.373,4.388-40.877-1.212-59.858M482.732,196.6c0-.013,0-.027,0-.04.166-.389.323-.78.476-1.174q.391-.33.787-.653-.664.916-1.262,1.866m-1.672-59.915c.053,0,.115,0,.191-.006-.085,0-.15.011-.215.017l.024-.011m-8.2,15.483q-.541.2-1.088.36.333-.958.69-1.906c.146.509.28,1.023.4,1.546m69.861,10.747.074-.171c.009.044.021.087.03.132-.035.012-.069.027-.1.04m-29.886-26.389c-.076.19-.161.376-.239.565a5.936,5.936,0,0,0-.486-2.583,36.554,36.554,0,0,1,2.5-3.251,42.226,42.226,0,0,1-1.772,5.269m3.119,18.893a57.933,57.933,0,0,0-.9,9,39.8,39.8,0,0,1-4.549,4.259c.817-1.924,1.542-3.879,2.177-5.84.529-1.637,1.01-3.364,1.4-5.135q.892-1.42,1.755-2.858c.036.193.081.384.122.576m-10.42,34.347a35.112,35.112,0,0,1,6.226-3.276c-.05.065-.1.133-.15.2-.453.575-.932,1.135-1.423,1.689a40.5,40.5,0,0,0-4.654,1.389m48.191-28.837c-.2-1.012-.455-2-.748-2.977a22.572,22.572,0,0,0,1.833-2.687q-.536,2.831-1.084,5.664m-43.512-42.076c.033-.109.169-.032.344.129-.21-.034-.361-.075-.344-.129m-79.988,77.96c0,.038-.007.076-.008.113-.2,4.165,4.885,6.941,8.365,4.78.217-.135.414-.29.623-.433a9.933,9.933,0,0,1,1.1,1.687,12.833,12.833,0,0,0,.841,2.621c0,.02,0,.038,0,.058a16.727,16.727,0,0,1-2.172.065c-4.431-.784-8.028-5.476-10.47-8.861l-.04-.057a8.613,8.613,0,0,1,1.765.027m92.863-96.786a24.659,24.659,0,0,0-3.317.59,19.218,19.218,0,0,0-4.173-1.868c.127.016.256.028.384.044,2.377.3,4.754.712,7.106,1.234M462.806,215.277c.25-.268.49-.544.728-.823a6.3,6.3,0,0,0,5.012-1.131,11.4,11.4,0,0,0,.452,2.354,59.179,59.179,0,0,1-6.191-.4m59.648,3.537c.2-.5.385-1.01.542-1.536a4.651,4.651,0,0,0,.188-1.4c.677-.812,1.344-1.651,1.984-2.514a10.185,10.185,0,0,0,5.856,3.257l-1.487.4c-2.353.63-4.708,1.273-7.083,1.793" transform="translate(-164.34 -35.612)" fill="#5f9c75"/>
          </g>
        </g>
        <g id="Grupo_136597" data-name="Grupo 136597">
          <g id="Grupo_136596" data-name="Grupo 136596" clip-path="url(#clip-path)">
            <path id="Trazado_197462" data-name="Trazado 197462" d="M499.413,458.451c-6.688-2.893-13.264-.86-17.465,4.822-1.232,1.667,1.568,3.273,2.788,1.622a10.561,10.561,0,0,1,13.048-3.668c1.886.816,3.531-1.953,1.629-2.775" transform="translate(-196.395 -187.54)"/>
            <path id="Trazado_197463" data-name="Trazado 197463" d="M518.643,420.428c-5.356.855-8.7,4.631-10.607,9.494a35.133,35.133,0,0,0-1.977,7.25c-.607,3.848-.027,8.023-3.731,10.452-1.728,1.133-.113,3.917,1.629,2.775,5.309-3.48,4.377-8.787,5.59-14.3,1.244-5.649,3.553-11.554,9.954-12.576,2.045-.327,1.177-3.425-.858-3.1" transform="translate(-204.529 -172.469)"/>
            <path id="Trazado_197464" data-name="Trazado 197464" d="M530.036,423.562c8.281.024,7.469,11.569,5.873,17.018-.583,1.99,2.531,2.84,3.112.855,2.242-7.651,1.783-21.056-8.985-21.087a1.608,1.608,0,0,0,0,3.214" transform="translate(-215.493 -172.446)"/>
            <path id="Trazado_197465" data-name="Trazado 197465" d="M547.967,311.3c-10.314,2.58-6.9,18.693-7.062,26.363-.2,9.3-.547,18.913.088,28.187a212.715,212.715,0,0,1,.881,21.962c-.072,2.069,3.156,2.067,3.228,0a158.85,158.85,0,0,0-.588-18.6c-.671-8.088-.325-16.2-.4-24.31-.051-5.676.081-11.321-.1-16.994-.137-4.382-.66-12.145,4.8-13.512,2.014-.5,1.16-3.6-.858-3.1" transform="translate(-220.392 -127.688)"/>
            <path id="Trazado_197466" data-name="Trazado 197466" d="M552.4,314.4c5.2-.655,6.721,4.324,7.184,8.508.454,4.112.811,8.238,1.235,12.353.87,8.445,1.748,16.89,2.532,25.344.189,2.043,3.419,2.062,3.228,0-1.069-11.523-2.339-23.026-3.468-34.544-.631-6.444-1.962-15.975-10.711-14.875-2.033.255-2.059,3.473,0,3.214" transform="translate(-224.624 -127.625)"/>
            <path id="Trazado_197467" data-name="Trazado 197467" d="M572.326,394.338c-.092,9.28,2.189,18.286,3.331,27.446.482,3.863,1.26,7.614,2.12,11.409,1.022,4.512,1.324,9.141,2.46,13.629.507,2,3.621,1.155,3.112-.855-1.019-4.03-1.307-8.168-2.148-12.23-.933-4.5-1.907-8.863-2.5-13.432-1.121-8.669-3.237-17.179-3.149-25.968.02-2.069-3.208-2.071-3.228,0" transform="translate(-233.372 -161.138)"/>
            <path id="Trazado_197468" data-name="Trazado 197468" d="M585.044,483.009c.665,3.767.766,8.5-.782,12.069-.815,1.879,1.965,3.518,2.787,1.622,1.934-4.462,1.942-9.821,1.108-14.545-.359-2.034-3.471-1.172-3.113.855" transform="translate(-238.18 -197.325)"/>
            <path id="Trazado_197469" data-name="Trazado 197469" d="M584.763,502c5.591,8.034,2.214,17.8-1.571,25.858-.875,1.862,1.907,3.5,2.787,1.622,4.272-9.09,7.864-20.06,1.571-29.1-1.175-1.689-3.975-.084-2.787,1.622" transform="translate(-237.735 -204.982)"/>
            <path id="Trazado_197470" data-name="Trazado 197470" d="M569.11,546.981c-4.85,6.731-6.155,15.552-10.111,22.813-1.992,3.656-5.2,6.434-7.164,10.074-1.806,3.343-2.518,7.166-3.3,10.84-.432,2.018,2.679,2.88,3.113.855.817-3.816,1.513-7.832,3.641-11.179,2.262-3.557,5.193-6.341,7.125-10.159,3.515-6.944,4.929-15.292,9.488-21.621,1.213-1.684-1.586-3.29-2.787-1.622" transform="translate(-223.654 -224.107)"/>
            <path id="Trazado_197471" data-name="Trazado 197471" d="M547.311,620.109c-2.092,2.777-1.6,6.753-2.182,9.991-.365,2.023,2.745,2.89,3.113.855.523-2.9.005-6.767,1.856-9.223,1.247-1.655-1.554-3.259-2.787-1.622" transform="translate(-222.271 -254.116)"/>
            <path id="Trazado_197472" data-name="Trazado 197472" d="M438.414,616.383c.256-2.949,2.265-5.636,3.363-8.341a55.622,55.622,0,0,0,3.207-10.207c.491-2.529,1.515-5.795,3.261-7.854,1.655-1.952,3.638-1.1,5.908-.518,2.012.518,2.871-2.581.858-3.1-2.187-.563-4.849-1.411-7.041-.4-2.257,1.039-3.3,3.752-4.344,5.8-2.115,4.156-2.606,9.009-4.221,13.412-1.361,3.71-3.872,7.208-4.219,11.206-.179,2.061,3.049,2.049,3.228,0" transform="translate(-177.45 -240.195)"/>
            <path id="Trazado_197473" data-name="Trazado 197473" d="M447.758,544.353a107.06,107.06,0,0,0-1.231-20.67c-1.279-7.383-1.642-14.881-2.5-22.318-.73-6.349-3-13.559.036-19.592,3.078-6.11,9.33-7.267,15.388-8.8,2.012-.508,1.159-3.609-.858-3.1-5.369,1.356-11.317,2.479-15.078,6.913-3.858,4.55-4.641,10.159-3.86,15.88,1.187,8.714,1.8,17.476,2.9,26.193.531,4.195,1.5,8.331,1.847,12.547a128.555,128.555,0,0,1,.123,12.944c-.039,2.069,3.189,2.069,3.229,0" transform="translate(-179.165 -192.741)"/>
            <path id="Trazado_197474" data-name="Trazado 197474" d="M461.088,476.742a18.17,18.17,0,0,0,8.274-1.567c2.1-1.081,2.876-3.881,4.943-4.746,1.886-.79,1.057-3.9-.858-3.1-1.893.792-2.743,2.039-3.992,3.578-1.934,2.383-5.483,2.637-8.368,2.62a1.608,1.608,0,0,0,0,3.215" transform="translate(-187.379 -191.666)"/>
            <path id="Trazado_197475" data-name="Trazado 197475" d="M472.275,472.417a12.74,12.74,0,0,1,4.619-.744,1.608,1.608,0,0,0,0-3.215,15.535,15.535,0,0,0-5.477.859,1.651,1.651,0,0,0-1.127,1.977,1.627,1.627,0,0,0,1.985,1.122" transform="translate(-191.743 -192.183)"/>
            <path id="Trazado_197476" data-name="Trazado 197476" d="M490.07,470.576a16.387,16.387,0,0,0,8.891-2.342c1.81-1.015.185-3.793-1.629-2.775a13.083,13.083,0,0,1-7.263,1.9c-2.078-.08-2.074,3.135,0,3.214" transform="translate(-199.198 -190.862)"/>
            <path id="Trazado_197477" data-name="Trazado 197477" d="M512.827,460.486c2.348-.867,4.554-3.481,7.057-3.625,2.731-.156,4.547,2.9,6.394,4.528,1.55,1.367,3.842-.9,2.282-2.273-2.221-1.957-4.063-4.822-7.167-5.418-3.895-.748-6.138,2.473-9.425,3.688-1.931.714-1.1,3.822.858,3.1" transform="translate(-208.315 -186.081)"/>
            <path id="Trazado_197478" data-name="Trazado 197478" d="M545.273,400.83c1.195.39,2.763-.127,3.943-.346a33.663,33.663,0,0,1,5.46-.789c2.075-.038,2.081-3.253,0-3.215a30.978,30.978,0,0,0-5.007.658c-.831.153-1.659.326-2.494.459-.225.035-.45.07-.675.1-.19.025-.736-.087-.369.033-1.978-.647-2.826,2.456-.858,3.1" transform="translate(-221.886 -162.654)"/>
            <path id="Trazado_197479" data-name="Trazado 197479" d="M550.752,406.374a30.121,30.121,0,0,0,7.608-.654c2.043-.356,1.177-3.454-.858-3.1a26.55,26.55,0,0,1-6.75.538c-2.07-.168-2.059,3.048,0,3.215" transform="translate(-223.945 -165.162)"/>
            <path id="Trazado_197480" data-name="Trazado 197480" d="M521.745,236.11c21.4-.155,44.7-1.238,62.116-15.3,16.243-13.117,20.193-35.053,22.254-54.641,1.139-10.824,2.212-21.777,2.436-32.661.218-10.571-.315-22.43-6.052-31.683C591.252,83.678,568.269,80.21,548.908,77.6c-31.823-4.289-63.756-3.678-95.787-3.677a1.608,1.608,0,0,0,0,3.214c25.782,0,51.652-.7,77.36,1.6,12.577,1.128,25.4,2.48,37.734,5.242,9.1,2.038,18.22,5.842,25.224,12.106,16.493,14.751,12.007,40.469,10.367,60.1-1.581,18.915-3.2,41.082-15.99,56.284-15.994,19.011-43.118,20.257-66.07,20.424a1.608,1.608,0,0,0,0,3.214" transform="translate(-184.13 -30.314)"/>
            <path id="Trazado_197481" data-name="Trazado 197481" d="M425.466,73.939c-28.789-.487-37.47,28.7-39.429,52.28-.505,6.079-.514,12.167-.812,18.255-.558,11.416-1.88,22.829-1.368,34.274.424,9.473,1.863,19.617,7.382,27.6,4.429,6.4,10.838,10.975,17.754,14.412,21.631,10.751,45.522,14.41,69.454,15.2,2.078.069,2.075-3.146,0-3.214-20.773-.686-40.707-3.694-60.088-11.356-7.546-2.984-15.154-6.655-20.887-12.521-6.85-7.009-9.258-16.375-10.108-25.881-.894-10-.1-20.065.573-30.057.475-7.049.6-14.1.961-21.151.555-10.953,1.951-22.141,5.985-32.417,5.274-13.436,15.62-22.46,30.584-22.208,2.078.035,2.078-3.178,0-3.214" transform="translate(-156.476 -30.331)"/>
            <path id="Trazado_197482" data-name="Trazado 197482" d="M507.748,229.336c18.025,1.079,41.866,2.652,55.4-11.838,6.649-7.118,9.335-17.364,11.636-26.55a243.856,243.856,0,0,0,6.189-33.057c1.344-12.545,2.29-25.786,1.613-38.4-.482-8.983-3.924-16.394-11.727-21.3-9.555-6.005-21.155-8.318-32.208-9.656-12.3-1.489-24.771-1.943-37.13-2.773-15.828-1.062-31.758-1.185-47.616-1-12.157.142-23.39,2.121-32.322,10.954-1.476,1.46.806,3.733,2.283,2.273,8.156-8.065,18.365-9.841,29.441-10.005,12.493-.186,25.029-.062,37.513.43,11.48.453,22.956,1.394,34.421,2.147,11.225.738,22.629,1.805,33.331,5.471,9.547,3.271,18.446,8.54,20.326,19.112.809,4.549.566,9.264.409,13.858-.216,6.3-.385,12.6-.754,18.889a223.25,223.25,0,0,1-4.792,33.064c-2.024,9.6-4.135,19.888-8.862,28.6-10.636,19.6-38.175,17.71-57.153,16.574-2.075-.124-2.068,3.091,0,3.215" transform="translate(-171.712 -34.743)"/>
            <path id="Trazado_197483" data-name="Trazado 197483" d="M415.5,103.379c-5.481,10.006-6.582,22.472-7.561,33.626a298.843,298.843,0,0,0-1.09,30.963A146.532,146.532,0,0,0,409.211,193c1.441,7.577,3.5,15.95,7.674,22.552,6,9.486,17.568,13.77,28.038,16.167,14.054,3.217,28.583,3.616,42.932,4.18,2.077.082,2.073-3.133,0-3.214-12.038-.474-24.142-.83-36.04-2.869-10.7-1.834-23.174-4.908-30.462-13.588-4.582-5.458-6.583-13.231-8.169-20.018a129.233,129.233,0,0,1-3.041-25.549c-.281-9.36-.015-18.761.6-28.1.81-12.246,1.513-26.546,7.546-37.56,1-1.817-1.791-3.441-2.787-1.622" transform="translate(-165.883 -42.084)"/>
            <path id="Trazado_197484" data-name="Trazado 197484" d="M191.725,103.686c-8.109-14.047-25.711-18.662-40.747-20.644C135.5,81,119.635,81.566,104.05,81.5c-16.677-.068-34.311.266-50.14,6.1-6.871,2.532-13.472,6.24-18.358,11.772-4.541,5.141-7.373,11.6-9.623,18.007-5.613,15.972-8.2,34.012-6.294,50.872.807,7.116,2.451,14.486,6.356,20.608,5.088,7.977,13.5,14.072,21.857,18.281,20.306,10.226,43.617,8.176,65.666,8.811,13.186.38,26.369-.361,39.552.023,9.13.266,19.329-.916,27.029-6.251,13.1-9.079,13.61-29.909,15.536-44.107,2.269-16.725,4.3-34.742.242-51.349a39.487,39.487,0,0,0-4.149-10.58,1.614,1.614,0,0,0-2.787,1.622c8.148,13.966,6.359,33.249,4.849,48.662-.695,7.084-1.7,14.141-2.694,21.189-1.122,7.923-2.432,16.176-6,23.426-4.341,8.822-12.611,12.4-22.023,13.759-4.866.7-9.676.374-14.568.322-6.128-.066-12.256.094-18.384.183-11.546.168-23.11-.2-34.657-.366-10.8-.157-21.857-.415-32.391-3.04-16.889-4.21-34.2-15.329-38.706-32.912-3.972-15.5-2.131-32.779,1.662-48.121,3.4-13.744,8.622-27.3,21.665-34.5,13.732-7.577,30.561-8.722,45.932-9.1,15.825-.39,32.055-.567,47.853.507,16.464,1.119,38.392,4.287,47.46,19.994a1.614,1.614,0,0,0,2.787-1.622" transform="translate(-7.753 -33.425)"/>
            <path id="Trazado_197485" data-name="Trazado 197485" d="M6.152,108.243c-1.125,11.3-2.514,22.569-3.664,33.866C1.453,152.285-.968,162.67.417,172.906c1.148,8.484,3.882,16.83,9.13,23.7,5.4,7.075,12.958,11.826,21.135,15.174,20.294,8.309,43.907,6.985,65.426,7.258,12.226.156,24.455.077,36.68.286,9.444.161,18.939.989,28.331-.429,9.077-1.37,17.833-5.2,23.485-12.647,5.242-6.909,7.24-15.571,8.38-24,1.6-11.843,3.43-23.6,5.367-35.394,1.887-11.493,3.455-23.141,2.907-34.813-.789-16.777-8.647-31.306-24.249-38.707-9.046-4.291-19.115-5.658-29.011-6.419-11.97-.922-23.93-1.627-35.891-2.7C86.669,61.944,59.422,60.758,35.2,70.257c-8.021,3.146-16.087,7.25-21.015,14.569-4.552,6.762-6.025,15.235-7.974,22.99-.5,2.007,2.608,2.863,3.113.855,1.671-6.646,2.938-13.774,6.228-19.865,3.441-6.372,9.3-10.38,15.742-13.407,19.775-9.292,42.515-10.228,64-9.185,11.193.544,22.311,1.9,33.478,2.746,11.146.846,22.432.792,33.43,3,16.2,3.25,30.363,12.939,34.48,29.59,2.5,10.1,1.614,21.206.434,31.433-1.313,11.384-3.656,22.618-5.385,33.941-2.746,17.995-2.756,39.8-23.285,46.932-8.738,3.037-18.234,2.8-27.357,2.508-10.366-.331-20.732-.339-31.1-.408-11.279-.074-22.556-.214-33.831-.55-9.969-.3-20.019-.513-29.843-2.392-10.694-2.046-21.826-6.083-29.9-13.6-6.965-6.484-10.782-15.215-12.426-24.45-1.945-10.931.625-21.948,1.734-32.849,1.149-11.3,2.539-22.566,3.663-33.866.2-2.057-3.025-2.043-3.228,0" transform="translate(0 -25.691)"/>
            <path id="Trazado_197486" data-name="Trazado 197486" d="M798.729,69.095c-16.33,1.6-34.234,3.928-43.9,18.764-5.449,8.363-8.2,18.531-10.235,28.177-2.7,12.822-3.925,25.922-4.881,38.972-.882,12.052-2.961,24.849-1.529,36.9,1.206,10.166,6.48,17.851,14.622,23.858,16.245,11.982,37.993,15.275,57.619,16.967,18.69,1.612,37.7,1.834,56.459,1.868,10.077.019,20.249-.356,30.177-2.2,8.151-1.51,17.1-4.119,23.068-10.19s8.535-15.022,10.107-23.149a169.739,169.739,0,0,0,2.6-28.991c.213-11.087.235-22.07,1.051-33.146.89-12.077,2.495-26.819-3.051-38.105C923.2,83.282,901.162,79.174,885.858,76.4a448.031,448.031,0,0,0-68.525-7.013c-6.2-.16-12.4-.244-18.6-.3a1.608,1.608,0,0,0,0,3.214c23.72.2,47.562.739,71,4.66,16.322,2.731,34.606,4.361,48.855,13.492,9.107,5.837,11.79,14.26,12.561,24.724,1,13.579-1.427,27.131-1.48,40.7-.067,17.209.569,35.309-4.985,51.844-2.693,8.019-7.21,14.139-15.071,17.664-8.763,3.931-18.773,5.04-28.265,5.613-17.111,1.033-34.471.136-51.6-.408-19.325-.614-39.246-2.017-57.6-8.518-8.583-3.04-17.082-7.42-23.39-14.1-8.461-8.961-8.118-21.083-7.257-32.573,1.793-23.92,2.161-48.7,9.68-71.705,2.45-7.5,5.767-15.1,11.749-20.492,5.65-5.087,13.114-7.379,20.443-8.817,5.073-1,10.214-1.583,15.356-2.087,2.049-.2,2.069-3.417,0-3.214" transform="translate(-300.805 -28.342)"/>
            <path id="Trazado_197487" data-name="Trazado 197487" d="M798.678,83.015c-7.938-.651-16.111.433-22.748,5.112-5.611,3.955-9.369,9.81-11.968,16.051-5.655,13.579-6.786,28.884-9.468,43.232-3.263,17.456-7.272,38.116-.452,55.21,5.932,14.865,22.095,18.846,36.54,21.186,16.332,2.647,32.853,2.787,49.33,3.735,18.882,1.086,38.105,3.793,56.791-.622,8.231-1.946,16.189-5.5,21.058-12.677,5.129-7.559,6.563-17.162,7.2-26.069.738-10.329.156-20.671,1.124-30.993,1.129-12.034,3.127-24.244,1.443-36.322-1.192-8.547-5.026-15.393-12.306-20.217-7.229-4.791-16.022-6.977-24.443-8.59a493.661,493.661,0,0,0-70.858-8.573c-7.077-.314-14.159-.454-21.242-.462a1.608,1.608,0,0,0,0,3.214,483.408,483.408,0,0,1,75.77,6.386c14.685,2.338,34.813,3.467,44.941,15.955,6.589,8.126,5.911,20.284,5.242,30.1-.753,11.044-2.445,21.964-2.481,33.053-.052,16.167,1.065,39.55-15.729,48.342-8.467,4.433-18.562,5.537-27.977,5.932a232.917,232.917,0,0,1-28.224-.866c-14.181-1.127-28.411-1.344-42.588-2.521a170.009,170.009,0,0,1-24.983-3.625c-6.651-1.569-13.87-3.687-19.2-8.152-6.213-5.2-8.392-13.856-9.192-21.564-.964-9.281-.151-18.739,1.16-27.946,1.067-7.493,2.638-14.888,3.933-22.341,1.155-6.644,2.06-13.331,3.5-19.924,2.887-13.209,8.385-28.1,22.9-31.986a37.83,37.83,0,0,1,12.929-.843c2.071.17,2.059-3.045,0-3.214" transform="translate(-305.951 -33.986)"/>
            <path id="Trazado_197488" data-name="Trazado 197488" d="M471.187,205.114c12.121,14.905,22.855,31.087,37.123,44.123.51.465,1.273-.29.761-.758-14.269-13.037-25-29.215-37.123-44.123-.436-.536-1.193.226-.761.758" transform="translate(-192.08 -83.761)"/>
            <path id="Trazado_197489" data-name="Trazado 197489" d="M536.65,166.668c20.38-24.158,42.26-46.992,64.788-69.163,21.917-21.569,44.087-42.986,66.9-63.61q10.117-9.144,20.531-17.956c3.237-2.726,6.519-5.4,9.789-8.083,3.017-2.481,6.231-5.96,10.2-6.81.676-.145.39-1.178-.286-1.033-5.3,1.136-10.039,6.553-14.054,9.846q-9.371,7.684-18.454,15.709c-12.287,10.82-24.232,22.014-36.078,33.309-22.552,21.5-45.1,43.022-66.656,65.523-12.9,13.461-25.423,27.266-37.44,41.51-.442.525.315,1.287.761.758" transform="translate(-218.461 0)"/>
            <path id="Trazado_197490" data-name="Trazado 197490" d="M471.846,193.537a162.163,162.163,0,0,1,28.519-16.806c.625-.295.08-1.218-.543-.925A162.124,162.124,0,0,0,471.3,192.611c-.547.41-.011,1.341.543.925" transform="translate(-192.087 -72.1)"/>
            <path id="Trazado_197491" data-name="Trazado 197491" d="M519.619,176.712c5.184,10.1,9.465,20.775,16.719,29.642.438.535,1.2-.227.761-.758-7.189-8.787-11.415-19.421-16.551-29.425-.316-.614-1.244-.073-.929.541" transform="translate(-211.855 -72.162)"/>
            <path id="Trazado_197492" data-name="Trazado 197492" d="M550.387,134.667c33.678-42.772,73.564-79.894,119.893-108.78C683.495,17.647,697.112,10.073,711,3.017c.617-.313.073-1.238-.543-.925C662.027,26.7,617.9,58.37,580.6,97.865c-10.885,11.526-21.169,23.595-30.972,36.044-.422.537.334,1.3.761.758" transform="translate(-224.066 -0.832)"/>
            <path id="Trazado_197493" data-name="Trazado 197493" d="M592.693,157.663c-9.906,5.971-18.33,14.681-26.386,22.867-3.888,3.951-7.59,8.065-11.367,12.118-2.459,2.639-5.336,5.294-6.934,8.576a.54.54,0,0,0,.845.649c8.724-7.968,17.2-16.2,26.174-23.888,4.091-3.5,8.2-7.025,12.458-10.322,2.493-1.929,5.333-3.75,7.012-6.477a.541.541,0,0,0-.736-.733c-16.823,10.288-29.9,25.129-44.314,38.325l.761.758a228.166,228.166,0,0,1,20.683-21.4c6.807-6.21,14.416-11.521,20.314-18.668.356-.432-.11-1.215-.652-.842-15.373,10.606-27.965,24.427-41.6,37.041l.761.757c11.136-13.386,25.835-23,38.558-34.737.467-.43-.126-1.107-.651-.842-7.386,3.725-12.859,10.228-18.78,15.812-7.164,6.756-13.857,14.1-21.614,20.195l.761.758c11.647-13.219,25.737-23.86,38.805-35.595.445-.4-.162-1.214-.652-.842-14.875,11.323-26.188,26.166-38.343,40.167l.845.649a270.915,270.915,0,0,1,17.7-21.855c5.661-6.358,12.078-12.058,17.388-18.719a.537.537,0,0,0-.76-.757c-7.259,6.168-13.467,14-19.864,21.013q-5.522,6.057-10.972,12.181c-.952,1.075-4,3.48-4.13,5.058-.046.558.738.691,1,.271,10.742-17.058,27.2-29.039,40.744-43.68.393-.425-.129-1.208-.652-.841-13.859,9.727-23.644,23.7-35.6,35.451l.9.521c.959-3.532,5.308-6.986,7.75-9.7,2.831-3.146,5.755-6.217,8.789-9.171,5.621-5.474,11.693-10.459,16.791-16.448a.541.541,0,0,0-.523-.9c-5.584,1.556-9.543,7.113-13,11.384-2.156,2.66-4.385,5.253-6.617,7.85q-2.439,2.839-4.885,5.67c-1.414,1.638-3.086,4.463-5.064,5.291l.608.787c5.9-11.439,15.554-20.137,24.327-29.346a.537.537,0,0,0-.761-.758c-8.86,7.508-14.26,17.887-21.62,26.693l.844.649c4.65-8.782,12.239-15.453,19.821-21.691l-.76-.757c-9.956,10.4-19.781,21.008-27.43,33.253-.376.6.521,1.071.929.541,10.961-14.258,22.176-28.449,36.363-39.7l-.9-.521c-.816,2.006-4.3,4.414-5.9,6q-2.968,2.947-5.887,5.941-5.516,5.656-10.87,11.467c-7.164,7.763-14.093,15.737-21.484,23.29l.845.649c6.387-8.491,14.374-15.519,22.316-22.52l-.76-.758c-3.517,3.451-7.038,6.938-10.343,10.591-3.028,3.346-5.818,6.874-9.587,9.443l.791.605c1.017-7.137,8.156-11.5,11.589-17.46a.539.539,0,0,0-.845-.649,109.983,109.983,0,0,0-12.018,13.967c-.323.425.31,1.032.736.733,5.494-3.853,9.244-9.52,13.871-14.279l-.761-.758c-3.987,4.329-8.077,8.6-11.836,13.132-2.907,3.5-5.166,7.574-8.789,10.425l.845.649a66.505,66.505,0,0,1,7.536-10.335c2.448-2.955,4.811-6.034,8.242-7.917l-.736-.733c-2.4,4.544-6.023,8.116-9.163,12.126-2.5,3.2-4.472,6.812-7.617,9.464l.845.649a15.631,15.631,0,0,1,2.312-3.58l-.9-.236c.409,1.378-.026,8.156-2.627,3.439-.333-.6-1.263-.065-.929.541a6.313,6.313,0,0,0,2.362,2.614.55.55,0,0,0,.736-.192,8.059,8.059,0,0,0,1.5-6.686.544.544,0,0,0-.9-.236,17.45,17.45,0,0,0-2.479,3.8.54.54,0,0,0,.844.649c3.451-2.91,5.572-6.96,8.391-10.42,3.025-3.713,6.309-7.12,8.557-11.387a.541.541,0,0,0-.736-.732c-3.511,1.927-5.948,5.052-8.46,8.085a67.825,67.825,0,0,0-7.7,10.551.54.54,0,0,0,.845.649c3.624-2.851,5.887-6.918,8.788-10.424,3.752-4.533,7.851-8.8,11.837-13.132.466-.507-.277-1.256-.761-.758-4.553,4.683-8.245,10.318-13.653,14.111l.736.733a108.344,108.344,0,0,1,11.849-13.75l-.844-.649c-3.471,6.028-10.663,10.448-11.7,17.716-.059.411.358.9.79.605,3.5-2.384,6.2-5.553,8.99-8.694,3.543-3.989,7.35-7.771,11.158-11.507.5-.488-.246-1.212-.76-.758-8.018,7.067-16.038,14.167-22.485,22.737-.371.493.427,1.076.845.649,8.078-8.255,15.6-17.019,23.489-25.449,3.967-4.239,7.974-8.439,12.064-12.561,2.233-2.249,4.9-4.175,7.071-6.417a7.758,7.758,0,0,0,1.8-2.748c.226-.557-.537-.809-.9-.521-14.26,11.306-25.515,25.585-36.531,39.915l.929.541c7.6-12.167,17.37-22.7,27.261-33.036.487-.508-.235-1.19-.76-.757-7.655,6.3-15.3,13.044-19.989,21.907-.271.511.435,1.139.844.649,7.357-8.8,12.768-19.19,21.621-26.692l-.761-.758c-8.836,9.276-18.551,18.041-24.5,29.563-.188.365.139.983.608.787,2.856-1.2,4.057-3.849,6.028-6.133,2.929-3.392,5.885-6.765,8.766-10.2,4.034-4.807,8.372-12.08,14.775-13.865l-.524-.9c-5.717,6.718-12.64,12.233-18.84,18.484-3.2,3.222-6.208,6.592-9.24,9.964-2.156,2.4-4.656,4.135-5.527,7.344a.542.542,0,0,0,.9.521c11.885-11.681,21.605-25.614,35.382-35.284l-.652-.841c-13.6,14.71-30.121,26.76-40.912,43.9l1,.27c.071-.873,4.188-4.723,5.205-5.865q5.448-6.115,10.985-12.153c5.948-6.508,11.721-13.75,18.461-19.477l-.76-.757c-5.607,7.033-12.394,13.065-18.351,19.8a268.9,268.9,0,0,0-16.9,20.987c-.354.491.446,1.108.845.649,12.086-13.921,23.334-28.74,38.126-40l-.652-.842c-13.068,11.734-27.158,22.376-38.805,35.595a.537.537,0,0,0,.761.758c7.491-5.889,13.883-12.986,20.833-19.471,6.128-5.718,11.739-12.533,19.344-16.369l-.652-.842c-12.724,11.736-27.422,21.352-38.558,34.738a.537.537,0,0,0,.761.757c13.568-12.55,26.088-26.32,41.384-36.873l-.652-.842c-5.9,7.147-13.507,12.458-20.314,18.668a228.251,228.251,0,0,0-20.683,21.4.537.537,0,0,0,.761.758c14.342-13.133,27.352-27.918,44.1-38.157l-.736-.733c-1.829,2.968-5.126,4.891-7.806,7.012-4.3,3.4-8.477,6.97-12.631,10.545-8.579,7.384-16.685,15.282-25.039,22.913l.844.649c1.657-3.4,4.674-6.086,7.215-8.836,3.613-3.91,7.183-7.845,10.919-11.641,7.982-8.112,16.359-16.787,26.168-22.7a.537.537,0,0,0-.543-.925" transform="translate(-219.314 -62.935)"/>
            <path id="Trazado_197494" data-name="Trazado 197494" d="M512.5,185.918a73.614,73.614,0,0,1,10.392,15.962c2.391,4.683,4.806,9.355,8.672,13.015.355.337,1.116,0,.9-.521a55.569,55.569,0,0,0-6.338-11.126c-1.565-2.17-5.117-5.472-5.011-8.3l-.81.462c4.633,3.366,7.289,8.512,10.808,12.893.407.506,1.086-.139.845-.649-.908-1.924-2.885-3.718-4.31-5.278-.4-.443-1.2.147-.845.649l.028.04.845-.649a67.853,67.853,0,0,1-5.558-7.733l-.736.733c5.069,2.33,8.311,7.919,10.887,12.618l.845-.649c-3.146-3.932-6.268-7.867-9.016-12.091l-.845.649a91.151,91.151,0,0,1,7.61,10.8l.845-.649c-6.219-5.6-9.924-13.237-14.112-20.334-.355-.6-1.224-.074-.929.541,1.623,3.383,3.293,6.724,5.229,9.941a.538.538,0,0,0,.929-.541c-2.054-4.153-4.282-8.216-6.311-12.381l-.929.541c1.626,2.2,2.916,4.6,4.7,6.685.355.416,1.044-.029.9-.521-.827-2.811-2.471-5.244-3.344-8.036l-.983.413c2,2.741,3.152,5.888,4.684,8.889l.929-.541c-2.083-3.382-3.561-7.079-5.635-10.466a.538.538,0,0,0-.929.541c2.586,5.522,6.374,10.279,9.665,15.381l.845-.649a77.836,77.836,0,0,1-6.164-9.309.538.538,0,0,0-.929.541c1.465,2.734,3.122,5.347,4.676,8.031,1.242,2.147,3.136,4.655,3.47,7.128.092.68,1.129.39,1.038-.285-.309-2.282-1.75-4.178-2.871-6.141-1.773-3.105-3.7-6.121-5.384-9.273l-.929.541a79.789,79.789,0,0,0,6.332,9.526c.391.468,1.173-.141.845-.649-3.292-5.1-7.078-9.858-9.666-15.381l-.929.541c2.073,3.388,3.551,7.084,5.635,10.466a.538.538,0,0,0,.929-.541c-1.531-3-2.685-6.148-4.683-8.889-.335-.459-1.178-.209-.984.413.872,2.791,2.519,5.232,3.344,8.036l.9-.521c-1.719-2.013-2.964-4.347-4.531-6.469a.538.538,0,0,0-.929.541c2.028,4.165,4.256,8.228,6.31,12.381l.929-.541c-1.936-3.218-3.607-6.559-5.229-9.941l-.929.541c4.236,7.177,7.991,14.885,14.28,20.551.44.4,1.171-.108.845-.649a93.138,93.138,0,0,0-7.779-11.012c-.386-.471-1.175.142-.845.649,2.8,4.3,5.982,8.3,9.184,12.307.392.49,1.127-.135.845-.649-2.645-4.827-6.053-10.6-11.273-13-.461-.212-1.033.238-.736.732a69.656,69.656,0,0,0,5.727,7.95c.38.47,1.2-.152.845-.649l-.028-.04-.845.649c1.361,1.49,3.283,3.24,4.142,5.061l.845-.649c-3.6-4.486-6.281-9.612-11.026-13.06-.349-.253-.8.094-.81.463-.095,2.529,2.412,5.188,3.805,7.057a59.654,59.654,0,0,1,7.582,12.657l.9-.521c-4.4-4.168-6.869-9.683-9.61-14.973a67.332,67.332,0,0,0-9.453-14.006c-.461-.516-1.22.244-.761.758" transform="translate(-208.921 -73.849)"/>
            <path id="Trazado_197495" data-name="Trazado 197495" d="M500.58,193.463c-2.253,1.73-4.545,3.346-6.7,5.2-1.694,1.453-4.446,4.482-6.891,4.39l.381.914c2.242-1.828,4.591-3.507,6.932-5.206.554-.4.017-1.332-.543-.925-2.415,1.753-4.837,3.489-7.15,5.374-.383.313-.046.9.38.914,2.112.08,4.142-1.815,5.665-3.039,2.816-2.262,5.6-4.49,8.47-6.692.541-.415.005-1.346-.543-.925" transform="translate(-198.352 -79.323)"/>
            <path id="Trazado_197496" data-name="Trazado 197496" d="M493.459,188.536c-1.456.918-2.866,1.909-4.325,2.826-1.337.84-4.791,3.626-6.471,3.161q.065.489.128.979c5.934-4.168,12.135-7.947,17.671-12.648.468-.4-.137-1.156-.651-.841-6.046,3.7-12.2,7.215-17.91,11.437-.454.336-.215,1.174.415.979,2.61-.808,4.718-2.913,7.02-4.319,2.43-1.484,5.762-2.92,6.851-5.756.15-.393-.3-.76-.662-.659-5.354,1.473-9.726,5.229-13.874,8.749a.54.54,0,0,0,.524.9c4.632-1.489,8.168-5.235,11.736-8.354.495-.433-.136-1.07-.652-.842-3.972,1.753-7.966,3.64-10.826,6.994a.541.541,0,0,0,.524.9c3.679-.708,8.365-3.121,10.031-6.634a.544.544,0,0,0-.608-.787c-3.2.576-5.633,2.569-8.288,4.3s-5.472,3.136-7.832,5.3a.54.54,0,0,0,.524.9,5.731,5.731,0,0,0,2.9-1.676c.3-.307.1-.96-.38-.915a9.6,9.6,0,0,0-5.362,2.4c-.509.409.14,1.077.652.842l.9-.387c.5-.2.516-1.129-.143-1.052a3.623,3.623,0,0,0-1.17.254.534.534,0,0,0-.247.605c1.384,3.633,4.884,5.629,8.08,7.533a.538.538,0,0,0,.651-.841,56.488,56.488,0,0,0-7.211-6.376c-.506-.364-1.067.418-.652.842,1.217,1.24,2.479,2.422,3.765,3.59.509.463,1.258-.271.761-.757-1.093-1.07-2.252-2.041-3.432-3.012a.54.54,0,0,0-.845.649c1.4,3.105,4.193,7.745,8,8.047a.539.539,0,0,0,.538-.536c-.206-3.16-1.882-6.019-3.764-8.5a.538.538,0,0,0-.929.541,9.054,9.054,0,0,0,2.881,3.482c.357.264.781-.1.809-.462a4.368,4.368,0,0,0-3.293-4.5.547.547,0,0,0-.662.374c-.752,2.488,2.668,7.652,5.579,5.714,2.624-1.747-1.285-5.414-3.105-5.941a.549.549,0,0,0-.662.374c-2.253,6.527,9.361,9.118,7.985,3.928-.493-1.859-4.279-5.922-5.882-3.007-1.744,3.171,3.221,7.255,6.1,5.753.614-.32.07-1.246-.543-.925a2.528,2.528,0,0,1-3.227-.955q-2.066-1.285.32-3.363c.673.006,2.326,2.409,2.293,3.053-.112,2.209-2.785,1.278-3.915.641-.619-.349-3.867-3.317-2.307-4.216.831-.478,2.622,2.837,2.634,2.8l-2.879.061q-2.192-2.652.49.211l.81-.462a7.174,7.174,0,0,1-2.5-3.1l-.929.541c.97,1.277,5.268,7.9,1.744,6.286-2.079-.95-3.751-4.363-4.661-6.381l-.845.649c1.181.972,2.339,1.943,3.432,3.012l.761-.757c-1.286-1.169-2.548-2.351-3.765-3.591l-.652.842a54.765,54.765,0,0,1,6.994,6.208l.652-.841c-1.118-.666-2.247-1.324-3.311-2.074-.212-.149-4.631-4.237-3.895-4.322q-.071-.526-.143-1.053c-.409.165-.753.311-1.153.495l.652.842a7.75,7.75,0,0,1,4.6-2.083l-.381-.915-2.427,1.4.523.9c2.3-2.111,5.029-3.446,7.615-5.137,2.569-1.68,4.914-3.632,8.031-4.194l-.608-.787c-1.531,3.229-6.005,5.49-9.388,6.141l.524.9c2.8-3.282,6.728-5.113,10.608-6.826l-.652-.842c-3.428,3-6.815,6.65-11.261,8.078l.524.9c4-3.4,8.229-7.052,13.4-8.474l-.662-.659c-1.087,2.835-5.075,4.213-7.464,5.794-1.819,1.2-3.534,2.876-5.655,3.532l.415.98c5.706-4.223,11.864-7.733,17.91-11.437l-.652-.842c-5.468,4.643-11.6,8.365-17.454,12.48a.543.543,0,0,0,.129.98c1.64.454,3.959-1.266,5.229-2.005,2.19-1.276,4.254-2.739,6.4-4.089.583-.368.044-1.3-.543-.925" transform="translate(-193.181 -74.639)"/>
            <path id="Trazado_197497" data-name="Trazado 197497" d="M502.991,198.014c3.306,3.816,5.006,8.694,6.765,13.344,1.106,2.924,2.242,6,4.637,8.128a.546.546,0,0,0,.919-.379c.556-6.954-3.259-13.666-6.123-19.767a.542.542,0,0,0-1,.271c.158,2.706,1.234,5.229,1.986,7.808,1.131,3.875,2,7.743,3.726,11.418.246.524.966.208,1-.27.249-3.24-1.155-6.539-2.125-9.566a133.156,133.156,0,0,1-3.978-15.394l-.9.521c1.833,1.978,2.242,5.241,2.978,7.756a51.937,51.937,0,0,0,3.565,9.734.54.54,0,0,0,.983-.413c-1.467-5.509-3.48-10.854-4.762-16.414l-1.038.285c2.383,5.928,2.227,12.752,6.277,17.958.3.384.917.046.919-.379.009-3.655-1.363-6.937-2.309-10.419-.824-3.032-1.343-6.112-2.919-8.873a.543.543,0,0,0-1,.271,46.4,46.4,0,0,0,3.537,13.7.541.541,0,0,0,1.057-.143c.313-3.243-.441-10.6-3.289-12.7-4.077-3-5.9,4.715-5.934,7.206a.544.544,0,0,0,.919.379,16.6,16.6,0,0,0,3.594-11.548.549.549,0,0,0-.4-.517c-3.364-.522-6.656,4.071-8.39,6.375-.416.551.518,1.086.929.541.8-1.062,5.29-6.711,6.65-5.765,1.835,1.276-2.216,9.037-3.149,10.156l.918.379c.018-1.408.127-4.109,1.218-5.219,3.364-3.424,4.358,1.387,4.831,3.165a22.212,22.212,0,0,1,1.023,7.544l1.057-.142a45.5,45.5,0,0,1-3.5-13.418l-1,.27c1.532,2.685,2.007,5.678,2.81,8.617.924,3.38,2.28,6.57,2.27,10.134l.919-.379c-3.894-5.005-3.707-11.785-6-17.486a.538.538,0,0,0-1.038.285c1.282,5.56,3.3,10.905,4.762,16.414l.983-.413c-1.931-3.685-2.983-7.751-4.1-11.739-.583-2.087-1.1-4.336-2.613-5.969-.391-.422-.994.031-.9.521a134.334,134.334,0,0,0,3.739,14.665c.991,3.162,2.584,6.642,2.326,10.01l1-.271c-1.689-3.6-2.507-7.374-3.617-11.162-.726-2.476-1.8-4.92-1.948-7.523l-1,.27c2.788,5.941,6.518,12.451,5.976,19.227l.918-.379c-3.21-2.856-4.153-7.428-5.7-11.262a35.622,35.622,0,0,0-5.7-10.21c-.453-.523-1.212.238-.761.758" transform="translate(-204.527 -77.938)"/>
            <path id="Trazado_197498" data-name="Trazado 197498" d="M512.792,181.051c-3.589-.53-6.217,4.053-8.435,6.182-.5.483.246,1.213.761.758,2.33-2.06,4.475-4.308,6.741-6.437.438-.412-.136-1.181-.652-.842a42.4,42.4,0,0,1-7.183,4.183l.524.9c2.422-2.423,5.357-4.188,8.043-6.294l-.761-.758a42.263,42.263,0,0,1-3.433,3.146c-.253.2-1.775,1.556-2.14,1.463-.627-.159,2.464-2.257,2.524-2.289l-.81-.462a75.378,75.378,0,0,0,2.015,17.409c1.019,4.669,2.436,9.379,5.571,13.1a.543.543,0,0,0,.9-.236c.833-3.215-1.269-6.356-2.307-9.3-1.086-3.074-1.879-6.808-4.493-9.006a.543.543,0,0,0-.9.521c.686,4.214,2.513,8.116,4.035,12.081,1.058,2.759,2.187,5.395,4.4,7.434a.546.546,0,0,0,.9-.236c1.258-3.53-2.124-9.205-3.585-12.285-.707-1.491-3.234-8.362-5.66-7.883a.544.544,0,0,0-.376.659c1.7,7.647,4.808,14.772,8.343,21.739.312.616,1.241.074.929-.541a103.542,103.542,0,0,1-6.766-15.888,22.8,22.8,0,0,1-1.153-4.185c-.042-.456-.8-.84-.021-.012a14.509,14.509,0,0,1,1.834,2.868,61.969,61.969,0,0,1,3.981,8.54c.676,1.787,2.126,4.772,1.437,6.7l.9-.236c-2.6-2.391-3.595-5.641-4.83-8.835-1.3-3.368-2.746-6.621-3.33-10.208l-.9.521c2.463,2.071,3.2,5.62,4.217,8.533.955,2.722,3.076,5.761,2.307,8.726l.9-.237c-3.247-3.85-4.544-8.906-5.526-13.736a73.532,73.532,0,0,1-1.744-16.012.543.543,0,0,0-.81-.463,12.529,12.529,0,0,0-4.737,3.8.539.539,0,0,0,.322.787c3.341.865,6.675-3.16,8.769-5.225.505-.5-.232-1.173-.761-.758-2.7,2.115-5.611,3.862-8.042,6.294-.352.352,0,1.108.523.9a43.719,43.719,0,0,0,7.44-4.291l-.652-.842c-2.267,2.128-4.411,4.377-6.741,6.437l.761.758c1.805-1.734,4.591-6.32,7.388-5.907.678.1.969-.932.286-1.033" transform="translate(-205.276 -73.274)"/>
            <path id="Trazado_197499" data-name="Trazado 197499" d="M496.829,196.685c3.99,7.792,7.04,16.04,11.7,23.484.267.426,1.037.284,1-.271-.161-2.619-2.3-5.075-3.578-7.266-2.738-4.679-5.007-9.568-8.555-13.723-.371-.434-1.007.04-.9.521,1.836,8.23,6.127,15.553,8.867,23.476l.984-.413c-4.333-6.423-6.908-13.851-11.783-19.929-.336-.419-1.069.034-.9.521,2.51,7.216,5.238,14.357,9.226,20.91a.54.54,0,0,0,.983-.413c-1.943-7.466-7.151-13.409-10.737-20.1l-.929.541c3.672,6.357,5.894,13.41,9.71,19.691a.538.538,0,0,0,.929-.541c-2.377-4.127-5.119-8.02-7.59-12.088-1.039-1.711-2.4-4.561-4.452-5.267a.542.542,0,0,0-.662.659,67.231,67.231,0,0,0,8.162,19.155l.845-.649c-4.924-5.068-6.229-12.665-11.933-17.088-.381-.3-1.086-.044-.9.521a42.676,42.676,0,0,0,8.037,13.54c.39.474,1.161-.138.845-.649a99.148,99.148,0,0,0-10-13.856.542.542,0,0,0-.9.521c1.171,4.135,4.017,7.38,6.718,10.626,3,3.606,5.739,7.4,9.665,10.074.5.338.926-.3.736-.732a61,61,0,0,0-5.017-8.787c-1.77-2.719-4.308-5.951-4.5-9.292l-.918.379c3.44,3.922,5.979,8.739,9.045,12.955,1.158,1.593,4.3,7.24,6.837,6.545a.544.544,0,0,0,.395-.517c-.283-5.13-1.84-9.9-3.092-14.849-.812-3.209-1.3-6.586-2.823-9.565-.3-.583-1.071-.143-.983.413,1.173,7.437,2.457,15.856,7.511,21.782a.553.553,0,0,0,.652.084c1.118-.493,1.163-1.059.974-2.183-.114-.678-1.151-.39-1.038.285a20.632,20.632,0,0,1-1.8-1.707,16.428,16.428,0,0,1-1.182-2.388,40.911,40.911,0,0,1-2.041-5.954,98.331,98.331,0,0,1-2.042-10.2l-.984.413c2.139,4.2,2.808,9.536,4.025,14.069.375,1.4.754,2.8,1.039,4.214.259,1.292,1.529,5.162.083,4.545-.977-.416-1.944-2.048-2.58-2.843-4.036-5.04-6.989-11.007-11.24-15.853a.543.543,0,0,0-.919.379c.171,2.968,2.008,5.694,3.548,8.134A79.464,79.464,0,0,1,500.5,228.48l.736-.733c-3.552-2.42-6.063-5.8-8.756-9.074-2.778-3.381-5.914-6.684-7.132-10.986l-.9.521a97.528,97.528,0,0,1,9.827,13.64l.845-.649a41.286,41.286,0,0,1-7.76-13.067l-.9.521c5.682,4.405,7.013,12.024,11.933,17.088a.54.54,0,0,0,.845-.649,66.312,66.312,0,0,1-8.053-18.9l-.661.659c2.111.726,3.6,4.495,4.7,6.289,2.19,3.556,4.609,6.95,6.7,10.573l.929-.541c-3.816-6.281-6.038-13.334-9.71-19.691a.538.538,0,0,0-.929.541c3.54,6.609,8.711,12.476,10.628,19.847l.984-.413c-3.94-6.474-6.638-13.524-9.117-20.654l-.9.521c4.813,6,7.335,13.37,11.614,19.713.321.476,1.193.193.983-.413-2.739-7.92-7.032-15.25-8.867-23.476l-.9.521c3.208,3.757,5.377,8.137,7.771,12.417,1.271,2.272,3.886,5.184,4.047,7.814l1-.27c-4.661-7.444-7.712-15.692-11.7-23.484-.314-.615-1.244-.073-.929.541" transform="translate(-197.475 -80.356)"/>
            <path id="Trazado_197500" data-name="Trazado 197500" d="M490.606,199.618c2.552,4.858,5.733,9.269,8.11,14.225,1.208,2.518,2.706,7.034,5.5,8.29a.542.542,0,0,0,.736-.733c-2.451-5.094-5.431-9.848-8.141-14.8-1.925-3.517-3.592-7.542-6.781-10.137a.54.54,0,0,0-.845.649c1.668,3.649,3.055,7.611,6.091,10.383a.543.543,0,0,0,.9-.521c-.647-4.261-2.872-7.989-3.921-12.141l-1.038.285c.917,2.712,3.378,12.8,7.579,11.845a.523.523,0,0,0,.376-.374c.692-4.348,1.013-9.833-2.621-13.011a.551.551,0,0,0-.652-.084c-3.318,2.306-3.7,9.306-2.114,12.661a.542.542,0,0,0,1-.27,27.909,27.909,0,0,0-3.989-12.649.544.544,0,0,0-.736-.192c-1.478,1.042-.442,4.215-.148,5.576a41.676,41.676,0,0,0,2.839,9.115.542.542,0,0,0,1-.27c-.418-3.8-2.48-9.529-6.067-11.45a.545.545,0,0,0-.791.32c-.5,2.393.136,4.489.786,6.813l.983-.413a81.179,81.179,0,0,0-5.227-8.087.543.543,0,0,0-.919.379,7.579,7.579,0,0,0,1.063,3.314.543.543,0,0,0,1-.271c.577-7.308-8.354,1.584-2.58,2.743,3.293.662,4.05-3.517,2.438-5.634-2.56-3.362-5.178,1.024-4.571,3.753a.545.545,0,0,0,.519.393c3.125.026,3-3.793.955-5.307a.541.541,0,0,0-.79.32c-.561,3.665,1.994,6.986,4.466,9.438,1.648,1.635,4.869,4.6,7.494,3.977,4.627-1.1-1.016-8.8-2.846-10.187a.542.542,0,0,0-.79.32c-.965,3.6,1.79,7.741,3.032,10.994,1.7,4.461,3.265,9.287,7.033,12.474a.545.545,0,0,0,.918-.379c.19-3.026-1.94-5.662-3.414-8.124-1.622-2.709-2.882-5.806-5.544-7.678-.422-.3-.865.191-.791.605.891,4.926,3.412,9.182,5.657,13.6,2.146,4.219,4.266,8.425,7.69,11.775a.544.544,0,0,0,.918-.379c.015-2.144-2.365-4.594-3.478-6.278-2.457-3.714-4.318-7.756-7.273-11.136a.542.542,0,0,0-.9.521c1.238,3.857,4.07,6.672,6.665,9.675,2.675,3.094,4.832,6.7,8.349,8.935.442.281,1.042-.288.736-.732-3.536-5.151-7.088-10.358-11.747-14.584a.539.539,0,0,0-.844.649,84.434,84.434,0,0,0,8.683,11.473c2.512,2.989,4.842,6.062,8.254,8.081a.543.543,0,0,0,.791-.32c.65-4.405-2.121-8.842-3.863-12.716-3.367-7.486-5.7-15.415-8.974-22.951l-.845.649c2.477,2.56,3.89,7.289,5.224,10.554l.983-.413-.017-.031c-.329-.617-1.215-.075-.929.541,2.637,5.682,5.212,11.388,8.245,16.875a.543.543,0,0,0,.845.109c.685-.727-.141-2.521-.361-3.266-.9-3.047-2.032-6.035-3.135-9.012-2.116-5.709-4.3-11.4-6.618-17.035a.538.538,0,0,0-1.038.285c1.313,5.284,3.473,10.272,5,15.486.973,3.318,1.816,7.1,4.2,9.74a.543.543,0,0,0,.919-.379c-1.014-9.77-3.866-19.181-5.828-28.778l-1.038.285c2.555,9.069,3.8,18.66,8.912,26.78a.544.544,0,0,0,1-.271c.422-3.767-1.34-7.6-2.542-11.085-1.648-4.774-2.962-9.611-5.139-14.189-.248-.521-.967-.21-1,.27-.316,4.157,2.342,9.33,3.852,13.068.633,1.566,2.407,7.885,4.714,7.811a.544.544,0,0,0,.519-.678,111.96,111.96,0,0,0-8.366-23.776c-.292-.629-1.206-.081-.929.541,2.646,5.948,5.115,12.234,9.587,17.1.393.427.987-.035.9-.521-.9-4.969-4.072-9.466-5.932-14.129-1.33-3.331-2.689-7.171-5.783-9.279a.546.546,0,0,0-.791.32c-1.572,3.97.01,10.557,2.856,13.659a.544.544,0,0,0,.918-.379c-.048-5.311-2.606-10.85-5.77-15.038a.548.548,0,0,0-.984.128c-1.375,3.774.882,8.459,2.3,11.9.211.514,1.084.515,1.057-.143-.216-5.2-.555-10.483-2.656-15.314a.539.539,0,0,0-.608-.247c-1.9.657-1.9,4.087-2.066,5.69-.333,3.157-.7,6.849.073,9.974a.541.541,0,0,0,1.057-.142c.167-3.69,0-7.546-1.748-10.879a.546.546,0,0,0-.929,0c-3.637,4.893-.365,11.461-2.236,16.878h1.038c-.713-4.438-.673-8.941-1.667-13.336a.543.543,0,0,0-1.038,0c-1.792,5.488-.309,11.36.206,16.939l1.057-.142a111.72,111.72,0,0,0-3.7-13.779l-.9.521c5.245,5.957,4.911,14.936,10.813,20.5,4.465,4.213,9.232.961,9.6-4.753a.542.542,0,0,0-1-.27c-1.231,2.414-1.838,5.051-.8,7.627a.546.546,0,0,0,.9.237c3-3.376,1.423-8.64,2.625-12.659h-1.038c2,4.87,1.465,12.932,6.83,15.706a.546.546,0,0,0,.736-.192c2.135-4.2-1.012-9.867-2.615-13.762l-.983.413a45.162,45.162,0,0,0,5.459,9.636c.347.438,1.031-.041.9-.521a31.312,31.312,0,0,0-4.192-8.773.541.541,0,0,0-.984.413,19.546,19.546,0,0,0,1.942,4.726c.622,1.348,1.5,2.511.586,3.8-1.151,1.625-4.165.147-5.651-.839-4.9-3.253-5.353-10.4-6.612-15.587a.541.541,0,0,0-1.057.142c0,8.95,1.456,17.789,2.14,26.7l1.057-.143c-1.626-4.812-2.08-9.822-3.177-14.753-.891-4-2.667-8.677-1.706-12.782H504.37c1.54,8.617,2.116,17.368,3.733,25.973.1.505.735.455.983.128,1.295-1.706.584-5.509.428-7.433-.154-1.894-.075-5.253-1.557-6.678a.545.545,0,0,0-.919.379c-.224,4.184.7,8.243,1.367,12.351.45,2.777.888,5.8,2.834,7.97a.542.542,0,0,0,.9-.521,58.145,58.145,0,0,0-3.812-8.965c-.822-1.572-2.157-4.765-4.308-4.936a.538.538,0,0,0-.538.535c.452,5.183,1.649,11.284,5.213,15.3.4.448.965-.051.9-.521-.737-5.287-2.3-10.885-5.452-15.276a.541.541,0,0,0-.983.413,31.075,31.075,0,0,0,5.039,13.3.541.541,0,0,0,.984-.413,37.907,37.907,0,0,0-8.715-15,.545.545,0,0,0-.9.237c-1.52,4.464,3.517,10.3,5.582,13.87l.929-.541c-3.029-4.017-4.733-9.849-9.316-12.458-.317-.18-.866.041-.81.462.5,3.723,2.535,7.985,5.756,10.09.486.318.95-.287.736-.733a24.035,24.035,0,0,0-5.925-7.446c-.32-.288-.953-.113-.919.379.23,3.293,3.433,5.764,5.684,7.815,3.717,3.389,6.916,7.314,11.123,10.137.371.249.96-.17.79-.6-1.715-4.395-1.373-7.352.543-11.53,1.041-2.272,2.25-4.456,3.191-6.773.26-.639-.781-.917-1.038-.285-1.367,3.367-3.357,6.477-4.476,9.946-1.114,3.454-.55,5.616.743,8.927l.79-.605c-3.681-2.471-6.417-5.81-9.618-8.81-2.285-2.142-6.419-4.82-6.656-8.217l-.919.379a23.517,23.517,0,0,1,5.757,7.229l.736-.733c-2.834-1.852-4.785-5.894-5.223-9.164l-.81.462c4.342,2.472,6.044,8.247,8.93,12.074.4.537,1.285.074.929-.541-1.906-3.294-6.83-9.062-5.474-13.044l-.9.236a36.847,36.847,0,0,1,8.438,14.524l.983-.413a30.34,30.34,0,0,1-4.931-13.047l-.984.413c3.1,4.315,4.619,9.818,5.344,15.02l.9-.521c-2.178-2.453-3.2-5.732-3.961-8.861-.256-1.052-1.228-3.864-.863-4.841.086-.231.887.941,1.389,1.685a44.677,44.677,0,0,1,5.082,11.126l.9-.521c-1.984-2.207-2.238-5.571-2.692-8.373-.605-3.732-1.4-7.389-1.195-11.19l-.919.379c1.362,1.31,1.192,5.033,1.3,6.744.1,1.556.657,4.755-.341,6.069l.983.128c-1.617-8.6-2.194-17.356-3.733-25.973a.543.543,0,0,0-1.038,0c-.879,3.757.468,8.047,1.315,11.688,1.27,5.463,1.766,11.083,3.569,16.418.183.541,1.106.493,1.057-.142-.685-8.907-2.14-17.746-2.14-26.7l-1.057.143c1.676,6.907,2.624,16.373,11.245,17.873,7.549,1.313,1.07-7.555.566-10.546l-.983.413a30.362,30.362,0,0,1,4.084,8.517l.9-.521a44.1,44.1,0,0,1-5.291-9.419c-.249-.547-1.215-.15-.984.413a65.032,65.032,0,0,1,2.531,6.688,13.946,13.946,0,0,1,.705,3.6c0,2.729-.951,2.074-2.191.162-2.43-3.746-2.253-8.718-3.921-12.773a.544.544,0,0,0-1.038,0c-1.126,3.763.4,9.089-2.349,12.186l.9.237a8.025,8.025,0,0,1,.691-6.8l-1-.271a7.343,7.343,0,0,1-1.27,3.877l-6.086.507c-1.042-.461-2.165-2.285-2.776-3.214a33.288,33.288,0,0,1-3.277-7.426c-1.289-3.678-2.545-7.28-5.163-10.253a.542.542,0,0,0-.9.521,111.7,111.7,0,0,1,3.7,13.779c.108.588,1.112.461,1.057-.143-.5-5.47-2-11.278-.243-16.654h-1.038c.993,4.39.955,8.9,1.667,13.336.091.566.882.449,1.038,0,1.83-5.3-1.383-11.9,2.127-16.622h-.929c1.663,3.171,1.76,6.837,1.6,10.338l1.057-.143c-.852-3.439-.423-7.989.192-11.437.06-.336.326-2.486.717-2.584a26.638,26.638,0,0,1,1.11,3.651,57.614,57.614,0,0,1,1.123,10.552l1.057-.142c-1.334-3.244-3.57-7.834-2.3-11.329l-.983.128c3.057,4.045,5.577,9.36,5.624,14.5l.918-.379C507,199.673,506.2,196.018,506,193.13a8.418,8.418,0,0,1-.016-2.1c.261-1.346-.1-1.039.736-.605,1.134.586,2.152,3.118,2.669,4.181,1.17,2.4,1.964,4.959,3.05,7.4,1.537,3.45,3.739,6.554,4.42,10.333l.9-.521c-4.4-4.784-6.816-11.026-9.418-16.878l-.929.541a125.008,125.008,0,0,1,6.571,16.843c.394,1.319.659,2.72,1.095,4.023.184.551,1.032,2.023.784,1.7A17.43,17.43,0,0,1,514.123,215a79.087,79.087,0,0,1-3.764-9.545c-.689-2.078-1.835-4.71-1.665-6.947l-1,.271c2.139,4.495,3.415,9.248,5.031,13.933,1.167,3.383,2.912,7.155,2.5,10.8l1-.27c-5.058-8.035-6.275-17.549-8.8-26.524a.538.538,0,0,0-1.038.285c1.943,9.5,4.785,18.82,5.789,28.493l.919-.379c-2.605-2.89-3.238-7.206-4.374-10.805-1.478-4.675-3.364-9.178-4.55-13.948l-1.038.285q3.871,9.395,7.327,18.962c.937,2.574,1.463,6.423,2.875,8.732.453.741.509.261.334-.581-.339-1.634-1.9-3.622-2.641-5.14-1.7-3.46-3.282-6.974-4.9-10.469l-.929.541.016.031c.28.524,1.216.157.984-.413-1.411-3.452-2.875-8.313-5.5-11.027-.456-.471-1.073.126-.845.649,4.046,9.317,7.7,18.927,11.408,28.381.36.919,2,4.5,1.276,5.38-.536.645-4.528-3.944-5.039-4.548-3.766-4.446-7.726-8.821-10.676-13.863l-.845.649c4.59,4.165,8.092,9.29,11.578,14.368l.736-.733c-3.148-2-5.11-5.176-7.453-7.979-2.63-3.146-5.781-5.985-7.067-9.991l-.9.521c2.844,3.254,4.59,7.132,6.952,10.7,1,1.51,3.5,4.052,3.483,5.951l.919-.379c-3.359-3.286-5.419-7.425-7.521-11.558-2.2-4.323-4.676-8.511-5.549-13.34l-.79.6c2.48,1.745,3.651,4.777,5.158,7.294,1.385,2.312,3.446,4.741,3.267,7.584l.918-.379c-4.157-3.517-5.48-8.992-7.455-13.832a41.607,41.607,0,0,1-2.226-5.65c-.971-3.946,1.137-.538,1.86.794.94,1.732,2.395,5.11-1.278,4.473-2.24-.389-4.492-2.9-5.883-4.5a15.726,15.726,0,0,1-2.492-3.638c-.293-.632-.346-2.8-1.259-1.638q6.114-.036.214,1.637l.337-.708c.486.047,2.226-2.467,1.989.535l1-.27-.916-2.774-.919.379a78.865,78.865,0,0,1,5.059,7.871.54.54,0,0,0,.983-.413c-.218-.78-1.7-4.808-.609-5.288.362-.159,1.771,2.324,1.99,2.7a18.922,18.922,0,0,1,2.577,7.186l1-.271a40.139,40.139,0,0,1-2.81-9.238c-.235-1.159-1.33-4.588.095-2.208a23.388,23.388,0,0,1,2.744,10.136l1-.271c-1.137-2.4-.708-6.027.072-8.48,1.081-3.4,2.588-1.633,3.263.827a14.829,14.829,0,0,1,.423,5.359c-.07.611.089,1.512-.439,1.97-.8.7-.626.156-1.407-.594a11.254,11.254,0,0,1-1.912-3.406,66.416,66.416,0,0,1-2.46-6.458.538.538,0,0,0-1.038.285c1.049,4.151,3.274,7.88,3.921,12.141l.9-.521c-2.959-2.7-4.3-6.614-5.922-10.166l-.845.649c3.335,2.714,4.971,7.029,7.029,10.68,2.63,4.667,5.4,9.2,7.726,14.039l.736-.733c-2.834-1.274-4.577-6.767-5.805-9.369-2.109-4.469-5.123-8.391-7.418-12.762-.321-.611-1.25-.07-.929.541" transform="translate(-195.638 -75.282)"/>
            <path id="Trazado_197501" data-name="Trazado 197501" d="M549,211.727c-7.282,6.317-14.2,13.019-21.1,19.743l.845.649c1.226-2.446,4.618-4.808,6.625-6.794,2.48-2.456,4.991-4.88,7.5-7.306,5.008-4.838,9.958-9.726,15.328-14.171l-.845-.649c-2.611,4.505-6.318,8.341-9.688,12.291q-2.3,2.7-4.669,5.35c-1.349,1.513-3.892,5.4-5.8,5.878l.608.787c5.081-8.14,12.229-14.744,17.155-22.993a.541.541,0,0,0-.736-.733c-3.989,2.166-7.2,5.673-10.354,8.875-2.573,2.611-6.438,8.075-10.354,8.387l.464.806c3.043-5.17,7.786-8.871,12.169-12.854l-.9-.521c-.124.8-1.671,1.993-2.2,2.553-1.455,1.549-2.958,3.056-4.478,4.542-2.07,2.025-5.206,6.151-8.1,6.973l.608.787c3.388-5.281,7.913-9.6,12.125-14.211.387-.423-.14-1.227-.652-.841-5.142,3.875-9.116,8.913-13.688,13.395-.421.413.152,1.215.652.842,4.271-3.188,8.184-6.864,13.051-9.154l-.736-.733c-3,5.4-7.867,9.325-12.042,13.777l.844.649c3.793-5.658,8.546-10.511,13.062-15.583l-.845-.649c-3.822,6.576-7.2,13.4-11.367,19.775l.929.541a88.136,88.136,0,0,1,6.523-11.048l-.984-.413a22.268,22.268,0,0,1-4.445,10.466l.9.521c.8-3.342,2.185-6.484,2.5-9.931.045-.495-.6-.662-.919-.379-3.42,3.067-3.234,7.8-5.616,11.488l1,.27a23.639,23.639,0,0,1,.429-6.722c.112-.666-.855-.965-1.038-.285-1.276,4.755-3.338,9.407-2.822,14.421.05.488.728.78,1,.27a20.064,20.064,0,0,0,1.654-4.9l-1.056-.142a9.407,9.407,0,0,0,.8,3.411c.232.532.969.2,1-.27a10.747,10.747,0,0,0-.28-3.569c-.155-.637-.984-.413-1.056.142-.148,1.142-.2,2.27-.282,3.418l1-.271c-1.724-2.262-3.029-4.671-5.423-6.3-.461-.313-.99.291-.736.733a11.65,11.65,0,0,0,3.559,3.775c.49.353,1.125-.456.651-.842a20.5,20.5,0,0,0-4.995-3.382.542.542,0,0,0-.736.733c1.222,2.377,5.784,6.944,8.744,5.19,1.707-1.011,2.734-3.769,3.94-5.293,2.487-3.142,5.542-5.72,7.692-9.136.34-.541-.4-1.028-.845-.649a29.165,29.165,0,0,0-5.023,5.641c-1.535,2.2-2.64,5.132-4.644,6.925l.845.649a54.573,54.573,0,0,1,3.545-4.87c.283-.4-.184-.9-.608-.787a45.56,45.56,0,0,0-4.964,1.7l.608.787a8.944,8.944,0,0,1,2.531-3.175l-.9-.521a66.083,66.083,0,0,1-2.595,6.755c-.229.6.659.882.984.413a49.376,49.376,0,0,0,3.078-4.91.54.54,0,0,0-.845-.649,20.3,20.3,0,0,0-3.394,4.281.541.541,0,0,0,.736.733c1.791-1.057,2.747-2.824,4.076-4.395,2.065-2.439,4.281-4.766,6.446-7.115,4.129-4.476,8.217-8.975,12.562-13.248.494-.485-.266-1.242-.76-.758l-.13.127a.539.539,0,0,0,.652.842c2.033-1.188,3.527-3.564,5.366-5.055l-.76-.757q-10.933,11.875-21.429,24.135c-.444.518.268,1.256.76.758,5.849-5.909,10.854-12.578,16.831-18.366l-.845-.649c-4.567,6.711-11.323,11.432-16.419,17.7-.429.527.3,1.286.761.757,4.545-5.25,8.7-10.89,13.53-15.89,3.9-4.039,8.243-7.607,11.373-12.317.364-.547-.4-1-.845-.649-10.206,8.078-16.972,19.662-27.679,27.174l.736.733c2.868-5.722,7.992-10.361,12.222-15.1q7.731-8.669,16.186-16.645l-.845-.649c-1.781,2.871-4.807,5.433-7.224,7.79l.761.757.033-.037c.455-.513-.285-1.266-.76-.757-6.507,6.948-12.813,14.092-20.193,20.153l.9.521c.966-3.956,4.27-6.575,6.857-9.556q4.088-4.712,8.513-9.121c5.825-5.808,12.186-11.032,18.2-16.636.508-.474-.248-1.215-.761-.757-11,9.818-21.138,20.545-32.236,30.256l.9.236c-.4-1.482,3.763-5.115,4.687-6.095,1.315-1.393,2.653-2.777,4.05-4.089l-.761-.758-.012.014c-.449.515.266,1.251.761.757,6.22-6.2,12.779-12.019,19.583-17.571l-.845-.649c-3,4.475-7.592,7.853-11.222,11.807-5.217,5.68-10.108,11.643-15.523,17.142l.76.757A274.655,274.655,0,0,1,579.077,180.6l-.845-.649c-1.55,2.565-4.194,4.782-6.257,6.917-1.694,1.753-3.345,3.687-5.2,5.275l.76.758.037-.043c.447-.518-.291-1.272-.76-.758q-4.682,5.124-9.274,10.328c-2.784,3.163-5.5,7.651-8.969,10l.651.842a165.825,165.825,0,0,1,14.669-14.895c5.148-4.748,10.179-9.618,15.937-13.645l-.652-.842c-7.578,7.968-14.938,16.139-22.583,24.043-.456.472-5.659,5.442-5.191,5.831-.276-.229.572-1.732.653-1.895a31.95,31.95,0,0,1,4.132-5.768A149.083,149.083,0,0,1,568,193.537c2.891-2.777,6.19-6.57,9.941-8.209l-.652-.842c-7.4,8.336-14.646,16.85-23.174,24.086-.528.448.236,1.2.761.758,8.528-7.236,15.773-15.751,23.174-24.086a.539.539,0,0,0-.652-.842c-2.54,1.11-4.771,3.416-6.79,5.235-3.636,3.274-7.108,6.74-10.438,10.321a80.725,80.725,0,0,0-7.839,9.418c-.8,1.18-2.752,3.654-1.747,5.193a.546.546,0,0,0,.844.108c9.8-9.726,18.992-20.033,28.505-30.036.4-.423-.133-1.2-.652-.842a144.582,144.582,0,0,0-15.172,12.9,180.619,180.619,0,0,0-15.652,15.805c-.365.433.11,1.208.652.842,3.386-2.292,5.5-5.965,8.17-9.007q5.082-5.8,10.291-11.487l-.76-.758-.037.043a.537.537,0,0,0,.76.758c2.061-1.76,3.887-3.9,5.762-5.853,1.962-2.04,4.392-4.115,5.868-6.556.332-.549-.4-1.023-.845-.649a274.652,274.652,0,0,0-38.881,39.606c-.42.525.263,1.263.76.757,5.753-5.842,10.908-12.217,16.5-18.2,3.422-3.661,7.607-6.775,10.411-10.964.362-.541-.4-1.009-.845-.649-6.8,5.553-13.364,11.374-19.583,17.572l.761.757.012-.014a.537.537,0,0,0-.761-.758c-2.05,1.926-4.026,3.973-5.882,6.083-.949,1.08-3.582,3.463-3.132,5.143a.545.545,0,0,0,.9.236c11.1-9.711,21.237-20.439,32.237-30.256l-.761-.757c-6.736,6.273-13.852,12.112-20.266,18.727-3.07,3.166-5.8,6.637-8.826,9.828-2.217,2.337-3.969,4-4.758,7.229a.543.543,0,0,0,.9.521c7.38-6.06,13.686-13.2,20.192-20.153l-.76-.757-.033.037a.537.537,0,0,0,.761.757c2.484-2.422,5.558-5.05,7.392-8.007.328-.528-.408-1.06-.845-.649q-9.011,8.477-17.181,17.766c-3.973,4.5-8.679,8.781-11.4,14.2-.219.436.26,1.067.736.733,10.786-7.568,17.619-19.206,27.9-27.341l-.845-.649c-3.311,4.982-8.027,8.646-12.06,13-4.447,4.8-8.4,10.051-12.675,14.994l.761.757c5.154-6.336,11.967-11.123,16.587-17.913.35-.514-.417-1.064-.845-.649-5.977,5.788-10.981,12.457-16.83,18.366l.76.758q10.5-12.257,21.429-24.136a.537.537,0,0,0-.76-.757c-1.744,1.413-3.228,3.766-5.148,4.887l.652.842.13-.127-.76-.758c-3.995,3.928-7.759,8.051-11.56,12.163-1.838,1.989-3.674,3.98-5.484,5.994-1.643,1.828-3.667,5.16-5.823,6.433l.736.733a19.741,19.741,0,0,1,3.226-4.064l-.845-.649a49.275,49.275,0,0,1-3.078,4.91l.983.413a65.818,65.818,0,0,0,2.594-6.755.543.543,0,0,0-.9-.521,9.133,9.133,0,0,0-2.7,3.392c-.174.372.124.975.608.787a45.57,45.57,0,0,1,4.964-1.7l-.608-.787a53.928,53.928,0,0,0-3.545,4.87.54.54,0,0,0,.845.649c1.537-1.375,2.347-3.355,3.441-5.073a32.568,32.568,0,0,1,6.225-7.493l-.845-.649c-2.423,3.852-6.021,6.711-8.626,10.411-1.228,1.745-2.116,4.212-4.625,3.493a10.316,10.316,0,0,1-5.266-4.664l-.736.733a19.675,19.675,0,0,1,4.778,3.215l.651-.842A8.425,8.425,0,0,1,525.5,231.5l-.736.733c2.207,1.5,3.457,3.843,5.036,5.915a.544.544,0,0,0,1-.27c.083-1.148.134-2.276.282-3.418l-1.057.143a7.479,7.479,0,0,1,.241,3.284l1-.271-.656-2.87a.541.541,0,0,0-1.057-.143,18.452,18.452,0,0,1-1.546,4.647l1,.27c-.505-4.909,1.536-9.486,2.784-14.136l-1.038-.285a24.512,24.512,0,0,0-.467,7.007.544.544,0,0,0,1,.271c2.3-3.569,2.157-8.32,5.448-11.271l-.919-.379c-.306,3.352-1.68,6.4-2.461,9.646-.115.479.538.962.9.521a23.475,23.475,0,0,0,4.721-10.938.541.541,0,0,0-.983-.413A88.12,88.12,0,0,0,531.48,230.6a.538.538,0,0,0,.929.541c4.166-6.375,7.546-13.2,11.367-19.776.3-.513-.43-1.115-.845-.649-4.576,5.14-9.388,10.068-13.229,15.8-.339.506.429,1.092.845.649,4.242-4.522,9.167-8.508,12.211-13.994a.541.541,0,0,0-.736-.733c-4.875,2.295-8.774,5.962-13.05,9.154l.652.842c4.5-4.413,8.407-9.411,13.47-13.228l-.651-.841c-4.277,4.68-8.855,9.067-12.294,14.428a.542.542,0,0,0,.608.787c3.165-.9,6.348-5.068,8.578-7.249,1.733-1.694,3.455-3.411,5.09-5.2.53-.58,1.728-1.521,1.86-2.368a.543.543,0,0,0-.9-.521c-4.461,4.053-9.242,7.812-12.337,13.071a.54.54,0,0,0,.465.806c3.477-.278,6.565-4.033,8.816-6.321,3.825-3.887,7.6-8.466,12.435-11.088l-.736-.733c-4.925,8.247-12.073,14.852-17.155,22.993a.542.542,0,0,0,.607.787,5.091,5.091,0,0,0,3.065-2.171c2.251-2.814,4.592-5.516,6.95-8.255,3.742-4.345,7.9-8.608,10.781-13.586.32-.553-.391-1.025-.845-.649-5.749,4.758-11.033,10.019-16.4,15.2q-3.772,3.643-7.5,7.333c-1.917,1.906-4.5,3.5-5.729,5.956a.54.54,0,0,0,.845.649c6.9-6.724,13.821-13.426,21.1-19.743.523-.454-.241-1.209-.761-.758" transform="translate(-213.251 -73.724)"/>
            <path id="Trazado_197502" data-name="Trazado 197502" d="M609.918,128.191c.856-2.258,3.85-4.646,5.537-6.4,1.838-1.911,3.729-3.77,5.645-5.6,3.628-3.468,7.337-6.859,11.07-10.216,7.861-7.066,16.041-13.8,25.205-19.138l-.652-.842c-14.863,14.489-31.466,27.179-45.088,42.912a.537.537,0,0,0,.761.758c11.266-10.133,21.469-21.336,32.194-32.017l-.76-.757C632.394,108.4,621.23,120.177,609.9,131.8l.76.757c4.707-5.22,9.138-10.774,15.039-14.729l-.652-.842c-4.856,6.258-9.941,12.408-16.18,17.358l.845.649c1.806-2.987,4.577-5.016,7.123-7.331l-.761-.757c-4.951,4.978-10.65,9.118-15.676,14.016-.5.488.241,1.2.76.758,4.205-3.6,7.545-7.978,11.361-11.956,4.31-4.492,9.125-8.477,13.64-12.758.433-.41-.145-1.2-.651-.842-4.326,3.047-7.846,7.12-11.565,10.847q-7.045,7.063-13.753,14.446l.845.649c2.778-5.462,7.219-9.846,11.518-14.138,4.15-4.143,8.2-8.386,12.394-12.482,9.611-9.374,19.708-18.233,30.008-26.847l-.76-.758c-14.83,13.394-29.258,27.215-43.675,41.045l.9.521c1.315-3.238,3.786-4.61,6.082-7,1.746-1.816,3.485-3.638,5.261-5.425q6.127-6.169,12.59-11.993c8.477-7.651,17.47-14.7,26.134-22.141.458-.393-.147-1.188-.652-.842-8.337,5.721-15.388,13.6-22.329,20.88-7.954,8.342-15.561,17.009-24.173,24.7l.9.237c-.761-3.02,3.366-6.086,5.139-8.258q2.527-3.1,5.173-6.095c3.465-3.924,7.067-7.747,10.833-11.386,7.295-7.049,15.312-13.333,21.817-21.161a.537.537,0,0,0-.761-.758,308.4,308.4,0,0,0-24.52,22.555c-7.449,7.609-14.425,15.672-22.638,22.5l.845.649c12.349-16.9,28.758-30.121,44.428-43.808.492-.429-.134-1.076-.652-.841-2.513,1.14-4.694,3.646-6.669,5.478-1.957,1.815-3.915,3.645-5.785,5.551-.486.5.25,1.221.761.758l.023-.021-.76-.757c-10.5,10.12-20.289,20.951-31.053,30.8l.918.379c-.268-3.133,2.466-4.269,4.195-6.273,1.444-1.674,2.884-3.347,4.379-4.977,3.145-3.432,6.45-6.709,9.859-9.881C637.44,96.069,644.684,90.5,651.1,84c.493-.5-.239-1.2-.761-.758-14.4,12.117-27.467,25.649-40.494,39.192l.845.649c1.143-2.229,2.967-3.632,4.659-5.4,1.639-1.718,3.208-3.5,4.845-5.226,3.325-3.5,6.7-6.965,10.308-10.176,6.473-5.765,13.482-10.951,18.8-17.871.4-.525-.411-.988-.845-.649-13.618,10.652-24.5,24.174-37.26,35.759l.9.521c.875-2.926,3.927-5.491,6.009-7.6,1.829-1.857,3.736-3.637,5.6-5.457,8.342-8.14,17.321-15.595,26.034-23.331a.539.539,0,0,0-.652-.842c-15.072,9.93-26.255,24.339-40.149,35.679l.845.649c9.309-13.336,22.557-23.018,34.378-33.969a.539.539,0,0,0-.652-.842c-6.1,4-11.281,9.4-16.505,14.444-5.98,5.773-11.755,11.751-17.392,17.855a.537.537,0,0,0,.76.758c9.447-8.287,17.864-17.64,27.156-26.09.445-.4-.143-1.188-.652-.842-3.945,2.683-7.2,6.462-10.608,9.77-5.52,5.357-10.921,10.834-16.411,16.221l.761.758c6.972-8.262,14.6-15.963,21.065-24.646.374-.5-.419-1.056-.844-.649a146.032,146.032,0,0,0-12.31,12.891c-2.673,3.262-5.4,7.742-9.395,9.506l.652.841c6.386-7.539,13.235-14.659,20.044-21.816.489-.515-.229-1.173-.761-.758-7.619,5.949-14.115,13.12-21.256,19.6l.761.758q6.141-6.169,12.8-11.765l-.761-.758c-3.061,2.711-6.149,5.383-9.179,8.129-2.145,1.944-4.449,3.693-5.81,6.3-.232.442.263,1.054.736.733,4.985-3.376,9.019-7.824,13.442-11.861.513-.468-.246-1.213-.761-.758-7.072,6.254-14.555,12.157-19.874,20.055-.369.548.4.994.845.649,8.047-6.283,13.263-15.516,21.99-21.005l-.736-.733c-3.471,5.1-8.551,9.377-12.661,13.958-1.223,1.364-8.159,7.677-6.668,10.024a.544.544,0,0,0,.736.192c8.255-5.989,15.854-12.789,23.914-19.024,1.594-1.234,4.438-3.359,4.895-4.279a12.093,12.093,0,0,1-.909,1.44,66.07,66.07,0,0,1-4.441,5.482c-6.324,7.352-13.539,14.1-19.512,21.729-.413.529.249,1.253.761.758,7.54-7.3,13.89-15.84,22.585-21.879l-.736-.733c-3.015,4.23-6.8,7.84-10.067,11.875-2.86,3.536-5.626,7.121-9.249,9.927l.761.757c6.208-7.08,12.727-13.862,20.272-19.548l-.736-.732c-4.067,5.511-9.061,10.2-13.987,14.933l.845.649c5.693-7.961,14.311-13.466,21.189-20.344,7.293-7.293,14.18-15,22.391-21.312l-.736-.733c-1.944,3.188-5.82,5.816-8.669,8.2s-5.771,4.679-8.665,7.007c-5.712,4.594-11.711,8.839-17.071,13.852-.436.408.147,1.2.652.842,5.747-4.086,10.541-9.4,15.629-14.239,5.749-5.471,11.509-10.925,17.576-16.048l-.845-.649c-.975,2.252-4.141,4.47-5.958,6.1l.9.521c0,.034-.007.068-.01.1a.537.537,0,0,0-.761-.757c-5.9,5.788-11.645,11.726-18.1,16.909l.9.521c.735-2.194,3.144-3.822,4.767-5.445q2.892-2.894,5.886-5.685c3.681-3.435,7.46-6.779,11.366-9.96,7.582-6.174,15.541-11.885,22.477-18.807.419-.418-.135-1.194-.652-.841-13.855,9.454-26.429,20.544-39.037,31.551l.761.758C653.3,85.627,668,74.962,682.381,64.051a.537.537,0,0,0-.543-.925c-2.292,1.175-4.346,3.432-6.292,5.074q-3.083,2.6-6.14,5.236c-.525.452.239,1.206.76.757l.342-.295-.761-.757c-9.1,7.9-17.557,16.519-27.061,23.955l.845.649c3.757-5.079,9.672-8.783,14.657-12.585,5.1-3.892,10.314-7.635,15.584-11.3l-.736-.733c-4.268,5.557-10.885,8.564-15.634,13.65a.539.539,0,0,0,.652.842c6.071-2.845,10.384-8.228,15.325-12.574.451-.4-.156-1.206-.651-.842-4.043,2.971-7.8,6.3-11.9,9.2l.652.842c8.908-9.266,18.43-17.918,27.427-27.1a.539.539,0,0,0-.652-.842c-9.267,4.717-16.256,12.64-23.677,19.7-7.655,7.283-14.6,16.053-23.773,21.507l.651.842a130.354,130.354,0,0,1,16.659-16.107c5.328-4.344,11.008-8.325,15.269-13.788.353-.452-.08-1.167-.652-.842-16.044,9.119-28,23.373-41.743,35.365l.845.649c1.615-3.511,5.16-6,7.952-8.617q4.6-4.321,9.462-8.354c6.188-5.126,12.939-9.542,18.7-15.166.422-.412-.156-1.22-.652-.841-6.4,4.881-12.438,10.191-18.446,15.532q-4.668,4.149-9.242,8.4c-3.1,2.881-5.886,6.881-9.9,8.428l.608.787c8.627-12.615,22.471-20.09,32.427-31.483.376-.43-.117-1.206-.652-.841-12.733,8.692-22.883,20.364-34.4,30.483l.9.521c1.362-4.019,6.956-7.518,10.071-10.233,7.43-6.475,15.03-12.723,22.607-19.026.465-.387-.15-1.189-.652-.842-6.212,4.3-11.716,9.441-17.258,14.546-2.91,2.681-5.838,5.341-8.727,8.042q-2.211,2.067-4.4,4.153c-1.144,1.089-4.595,5.058-5.879,5.167l.381.915c9.429-11.288,21.5-19.884,31.64-30.481.406-.425-.128-1.195-.652-.842-11.712,7.891-20.39,19.233-31.576,27.754l.736.733c8.618-11.462,20.629-19.718,32-28.226l-.652-.842c-7.982,6.419-15.867,12.96-24.024,19.161-1.787,1.358-3.578,2.723-5.439,3.98a10.716,10.716,0,0,0-1.8,1.151c-1.432,1.568,1.987-1.341,2.345-1.687,3.5-3.393,7.465-6.23,11.2-9.352,4.295-3.595,8.228-7.59,13.05-10.511l-.651-.842c-7.915,6.471-16.51,12.232-23.015,20.217a.537.537,0,0,0,.761.758c11.275-9.818,21.806-20.459,33.409-29.905l-.76-.758c-6.505,7.748-15.657,12.722-21.917,20.7a.537.537,0,0,0,.76.757c5.731-4.508,10.811-9.756,16.509-14.3,5.723-4.564,12.091-8.241,17.818-12.8.49-.391-.136-1.125-.652-.842-6.388,3.5-12.066,8.234-17.859,12.614C650.248,75.968,644.59,80.361,639.127,85c-.458.389.163,1.211.652.842,12.092-9.13,23.865-18.687,36.557-27L675.684,58c-5.093,4.308-10.341,8.448-15.164,13.062-4.7,4.495-9.174,9.211-14.589,12.879l.651.842c5.687-5.29,11.485-10.463,17.531-15.346,3.473-2.8,7.052-5.469,10.64-8.125q2.473-1.83,4.956-3.646c.752-.55,4.111-3.107,4.178-3.1l-.381-.914c-11.99,10.042-23.015,21.179-35.279,30.9l.845.649c4.355-5.808,10.824-10.2,16.451-14.716q9.633-7.725,19.829-14.7l-.652-.842c-5.134,4.926-11.2,8.784-16.445,13.61-5.95,5.476-11.614,11.284-18.517,15.6l.652.841c5.225-5.406,11.16-9.951,17.1-14.542,6.523-5.044,12.876-10.321,19.944-14.609L686.781,55c-12.083,9.549-23.7,19.686-36.229,28.663-.557.4-.021,1.329.543.925,12.606-9.03,24.291-19.225,36.446-28.83.483-.382-.139-1.153-.652-.842-6.74,4.09-12.817,9.08-19.029,13.9-6.3,4.891-12.673,9.667-18.229,15.417-.414.428.121,1.174.651.842,6.6-4.128,12.1-9.6,17.769-14.872,5.542-5.157,11.959-9.276,17.411-14.505.431-.413-.14-1.193-.652-.842q-10.3,7.066-20.047,14.873c-5.718,4.586-12.194,9.03-16.619,14.932-.4.528.41.994.845.649,12.265-9.724,23.289-20.861,35.28-30.9.4-.332.033-.869-.38-.915-2.591-.281-4.174,2.741-5.961,4.155-3.44,2.721-7.089,5.192-10.567,7.866-7.51,5.775-14.607,12.063-21.537,18.509-.439.409.14,1.188.652.842,5.125-3.471,9.438-7.856,13.865-12.138,5.115-4.947,10.674-9.378,16.1-13.971.464-.392-.143-1.175-.652-.842-12.692,8.311-24.465,17.868-36.557,27l.652.842c5.78-4.91,11.781-9.54,17.836-14.106,5.405-4.076,10.685-8.43,16.641-11.695l-.651-.842c-5.728,4.562-12.1,8.237-17.819,12.8-5.7,4.546-10.779,9.792-16.509,14.3l.76.757c6.26-7.978,15.412-12.952,21.917-20.7a.537.537,0,0,0-.76-.758c-11.6,9.447-22.135,20.088-33.41,29.905l.761.758c6.5-7.985,15.1-13.747,23.014-20.217.476-.39-.138-1.153-.652-.842-4.9,2.969-8.9,7.026-13.268,10.678-4.779,3.994-9.781,7.608-13.969,12.257a.54.54,0,0,0,.109.841c1.192.584,3.421-1.519,4.251-2.1,3.523-2.473,6.91-5.147,10.291-7.8,6.244-4.907,12.375-9.952,18.563-14.928.47-.378-.163-1.208-.652-.842-11.532,8.628-23.65,16.99-32.387,28.611-.315.419.316,1.053.736.733,11.186-8.521,19.87-19.867,31.576-27.754l-.652-.842c-10.136,10.6-22.211,19.194-31.64,30.481-.267.32-.128.958.38.915,2.686-.228,3.311-2.062,5-3.914,3.194-3.508,6.993-6.625,10.487-9.835,6.889-6.33,13.611-12.964,21.328-18.305l-.652-.842c-7.713,6.416-15.45,12.776-23.01,19.371-3.192,2.784-8.531,6.188-9.944,10.361-.183.541.525.85.9.521,11.447-10.057,21.527-21.675,34.182-30.315l-.652-.842c-10.021,11.467-23.91,19-32.6,31.7a.542.542,0,0,0,.608.787,13.868,13.868,0,0,0,5.5-3.876c3.372-3.655,7.137-6.954,10.828-10.288,6.982-6.305,14.027-12.594,21.512-18.307l-.652-.841c-6.115,5.964-13.323,10.626-19.845,16.118q-4.829,4.067-9.4,8.422c-2.643,2.518-5.488,4.436-7.042,7.813a.54.54,0,0,0,.845.649c13.674-11.931,25.562-26.124,41.525-35.2l-.652-.841c-4.261,5.462-9.941,9.443-15.269,13.787A130.36,130.36,0,0,0,640.7,97.6c-.379.444.1,1.171.652.842,8.669-5.157,15.008-13.233,22.268-20.058,7.939-7.463,15.323-16.13,25.182-21.148l-.652-.842c-9,9.178-18.519,17.83-27.426,27.1-.405.421.136,1.208.651.842,4.092-2.906,7.853-6.233,11.9-9.2l-.652-.842c-4.868,4.282-9.128,9.6-15.108,12.406l.652.842c4.818-5.16,11.465-8.219,15.8-13.867.327-.425-.31-1.029-.736-.733-5.712,3.971-11.357,8.038-16.868,12.283C651.63,88.863,646.185,92.362,642.6,97.2c-.394.533.41.99.845.649,9.5-7.436,17.964-16.052,27.061-23.955.523-.454-.24-1.207-.761-.757l-.342.295.76.757c3.757-3.241,7.793-7.874,12.215-10.142l-.543-.925C667.384,74.091,652.6,84.8,640.291,98.213a.537.537,0,0,0,.761.758c12.539-10.948,25.04-21.981,38.819-31.384l-.652-.841c-7.594,7.579-16.419,13.7-24.623,20.577-4.1,3.435-8.07,7.038-11.919,10.748-2.735,2.636-6.981,5.318-8.229,9.044-.187.557.52.826.9.521,6.456-5.183,12.2-11.12,18.1-16.909l-.761-.757a.787.787,0,0,0-.267.37.542.542,0,0,0,.9.521c1.9-1.7,5.1-3.942,6.127-6.313a.54.54,0,0,0-.845-.649c-5.687,4.8-11.108,9.894-16.5,15.022-5.363,5.1-10.439,10.8-16.488,15.1l.652.841c5.713-5.344,12.129-9.884,18.223-14.78,3.091-2.483,6.208-4.936,9.214-7.522,2.425-2.087,5.459-4.226,7.135-6.973.261-.428-.294-1.072-.736-.733-8.288,6.368-15.248,14.118-22.609,21.479-6.953,6.954-15.6,12.511-21.358,20.561-.363.508.418,1.059.845.649,4.995-4.8,10.032-9.563,14.155-15.15.311-.421-.313-1.052-.736-.732a138.414,138.414,0,0,0-20.49,19.716.537.537,0,0,0,.761.757c3.948-3.057,6.873-7.046,10.014-10.873,3.1-3.774,6.631-7.161,9.47-11.145.308-.432-.3-1.034-.736-.733-8.774,6.095-15.193,14.684-22.8,22.046l.761.758c4.674-5.974,10.273-11.327,15.329-16.978,2.683-3,5.4-6,7.85-9.191.671-.873,2.546-2.709,2-3.978a.54.54,0,0,0-.736-.192c-6.757,4.8-13.059,10.16-19.477,15.39-1.858,1.514-3.727,3.014-5.623,4.48-.924.714-1.954,1.385-2.836,2.153-.358.311-1.172,1.774-.839.743.494-1.527,2.067-3.047,3.059-4.247,5.052-6.109,11.627-11.369,16.086-17.919.3-.446-.293-1.011-.736-.733-8.811,5.541-14.088,14.832-22.209,21.173l.845.649c5.266-7.818,12.708-13.649,19.706-19.838l-.761-.758c-4.353,3.973-8.316,8.369-13.224,11.693l.736.733c1.49-2.847,4.227-4.784,6.554-6.925,2.7-2.488,5.517-4.849,8.268-7.284.522-.462-.238-1.2-.761-.758q-6.653,5.616-12.8,11.765c-.49.492.251,1.221.761.758,7.141-6.482,13.636-13.652,21.256-19.6l-.761-.758c-6.809,7.158-13.657,14.277-20.043,21.817a.539.539,0,0,0,.651.841c3.836-1.694,6.5-5.826,9.039-8.961a145.8,145.8,0,0,1,12.883-13.6l-.845-.649c-6.407,8.609-13.984,16.238-20.9,24.429-.439.521.259,1.25.761.758,5.124-5.028,10.172-10.134,15.309-15.148,3.664-3.576,7.246-7.788,11.492-10.676l-.652-.842c-9.293,8.45-17.71,17.8-27.156,26.09l.76.758c5.306-5.745,10.733-11.38,16.34-16.835,5.465-5.317,10.938-11.1,17.34-15.3l-.652-.842c-11.9,11.02-25.179,20.767-34.547,34.186-.374.535.407,1.007.845.649,13.822-11.281,24.938-25.633,39.931-35.512l-.651-.842c-9.154,8.128-18.468,16.038-27.272,24.547-3.508,3.391-9.2,7.468-10.649,12.319a.542.542,0,0,0,.9.521c12.756-11.586,23.641-25.108,37.259-35.76l-.845-.649c-5.786,7.535-13.665,12.956-20.547,19.4-3.411,3.2-6.663,6.575-9.857,9.984-2.774,2.961-6.336,5.646-8.2,9.291-.268.523.4,1.108.845.649C623.627,109.646,636.693,96.115,651.1,84l-.761-.758c-7.434,7.535-15.908,13.944-23.514,21.3-3.9,3.767-7.258,8-11.056,11.839-2.295,2.318-4.82,3.408-4.509,7.03a.545.545,0,0,0,.918.379c10.764-9.851,20.553-20.682,31.053-30.8.5-.482-.25-1.221-.76-.757l-.024.021.761.758c1.677-1.71,3.432-3.353,5.182-4.989,2.088-1.952,4.409-4.673,7.055-5.873l-.651-.841c-15.748,13.754-32.188,27.039-44.6,44.025-.384.525.41,1.011.844.649,8.213-6.828,15.189-14.891,22.638-22.5a308.292,308.292,0,0,1,24.52-22.555l-.761-.758c-7.674,9.236-17.384,16.488-25.727,25.085-4.4,4.538-8.4,9.365-12.555,14.12-2.461,2.818-6,4.589-4.956,8.737a.544.544,0,0,0,.9.236c8.246-7.363,15.574-15.618,23.16-23.632,7.161-7.565,14.494-15.857,23.125-21.78l-.652-.842c-9.431,8.1-19.218,15.771-28.374,24.182q-6.68,6.136-13,12.649c-3.2,3.3-7.2,5.833-8.974,10.2-.213.524.543.863.9.521,14.417-13.83,28.845-27.651,43.675-41.045.519-.468-.237-1.2-.76-.758-10.682,8.932-21.146,18.129-31.074,27.891-4.416,4.342-8.74,8.786-13.085,13.2-3.758,3.817-7.485,7.787-9.929,12.593-.263.517.414,1.123.845.649q6.2-6.808,12.67-13.357c3.968-4.005,7.8-8.507,12.43-11.769l-.652-.842c-4.515,4.282-9.33,8.265-13.64,12.758-3.816,3.978-7.155,8.357-11.361,11.956l.76.758c5.026-4.9,10.725-9.038,15.677-14.016.49-.492-.251-1.221-.761-.757-2.62,2.382-5.438,4.482-7.292,7.547-.337.557.394,1.007.845.649,6.238-4.949,11.324-11.1,16.18-17.358.338-.435-.1-1.215-.652-.842-5.977,4.006-10.486,9.605-15.256,14.9-.46.51.275,1.256.76.757,11.328-11.618,22.492-23.394,33.929-34.907a.537.537,0,0,0-.76-.757c-10.725,10.681-20.929,21.884-32.195,32.017l.761.758c13.623-15.734,30.224-28.423,45.088-42.912a.539.539,0,0,0-.652-.842c-9.66,5.625-18.226,12.794-26.485,20.265-4.264,3.856-8.516,7.736-12.606,11.777-2.812,2.779-7.44,6.206-8.861,9.956-.245.646.795.925,1.038.285" transform="translate(-244.277 -21.94)"/>
            <path id="Trazado_197503" data-name="Trazado 197503" d="M745.273,45.866c-5.893,5.589-12.284,10.633-18.414,15.958-4.208,3.655-8.349,8.969-13.292,11.584l.652.842a55.1,55.1,0,0,1,4.036-3.846c.525-.452-.239-1.207-.76-.758a55.248,55.248,0,0,0-4.037,3.846.539.539,0,0,0,.652.842c4.7-2.488,8.417-7.305,12.393-10.779,6.486-5.666,13.28-11,19.531-16.93.5-.477-.259-1.234-.761-.758" transform="translate(-290.859 -18.754)"/>
            <path id="Trazado_197504" data-name="Trazado 197504" d="M722.425,41.631c-7.172,6.269-14.082,12.827-21.335,19l.9.521c.974-3.055,5.772-6.363,8.124-8.517,2.622-2.4,5.322-4.712,8.144-6.878,4.914-3.77,10.081-7.281,13.983-12.155a.537.537,0,0,0-.761-.757c-4.5,3.612-9.128,7.095-13.509,10.844-2.733,2.339-5.472,5.685-9.023,6.746l.524.9c5.326-6,11.729-10.777,18.106-15.6,3.158-2.388,6.338-4.745,9.567-7.035,2.725-1.932,6.067-3.367,8.219-5.941.362-.433-.11-1.21-.652-.842-11.09,7.538-21.2,16.335-31.621,24.741l.761.758a243.611,243.611,0,0,1,20.264-16.132c5.124-3.5,10.782-6.578,14.705-11.494.353-.442-.091-1.188-.652-.842a148.153,148.153,0,0,0-16.221,12.069c-2.8,2.31-5.582,4.634-8.377,6.947-3.13,2.59-6.1,5.849-9.82,7.541l.652.841c9.5-9.586,20.328-17.629,30.977-25.879.489-.378-.138-1.143-.652-.842-5.921,3.48-10.992,8.536-16.112,13.056-6.273,5.537-12.471,11.145-19.311,16l.736.733c2.41-4.415,7.914-7.619,11.737-10.748,5.447-4.46,11.007-8.773,16.244-13.481.383-.344-.018-1.095-.524-.9-6.119,2.4-11.227,7.094-16.462,10.951-7.184,5.294-13.979,11.09-21.638,15.716l.736.734c3.157-4.918,9.066-7.932,13.707-11.311q9.361-6.814,19.138-13.023l-.652-.842c-3.877,4.546-9.424,7.646-14.194,11.185a194.367,194.367,0,0,1-16.353,11.338l.736.734c2.63-4.26,8.742-7.387,12.7-10.345,5.308-3.963,10.645-7.881,15.781-12.067.484-.395-.135-1.129-.652-.842-3.609,2.009-6.657,5.035-10.026,7.407-4.163,2.931-8.383,5.768-12.375,8.932-.475.376.149,1.185.651.842,6.047-4.142,11.293-9.322,17.5-13.245l-.652-.841c-5.022,4.1-10.658,7.316-15.955,11.03l.651.842c3.022-2.723,5.924-5.586,9.508-7.578q-.272-.462-.543-.925c-4.639,3.2-9.826,5.511-13.985,9.374-.48.445.13,1.07.652.842a29.912,29.912,0,0,0,7.794-5.058c.47-.416-.129-1.123-.651-.842-7.466,4.017-13.446,10.1-19.32,16.088-.491.5.238,1.2.76.758,4.146-3.484,8.249-7,12.079-10.83a.54.54,0,0,0-.524-.9c-6.648,2.293-11.614,8.993-15.1,14.781a.542.542,0,0,0,.608.787c2.069-.661,3.715-2.357,5.42-3.636,3.517-2.64,7.289-4.838,10.52-7.847.512-.476-.239-1.2-.76-.758-5.335,4.517-10.346,9.405-13.991,15.406-.261.43.292,1.069.736.734,5.342-4.04,9.725-9.162,15.131-13.124l-.652-.842c-2.615,2.659-5.384,5.191-7.884,7.958-1.468,1.624-2.843,3.7-4.728,4.874l.652.841c3.969-4.713,8.984-8.231,14.26-11.356l-.651-.84c-3.563,4.4-7.943,8.011-11.841,12.1a.537.537,0,0,0,.76.757c2.7-2.549,6.107-4.819,7.619-8.327.157-.362-.118-.991-.607-.787a14.313,14.313,0,0,0-4.8,3.648c-.733.757-1.9,2.912-2.949,1.412-.634-.906,1.786-5.087,2.177-5.839l-.983-.413c-.831,2.408-2.242,4.523-3.134,6.9-.182.485.409.778.791.605a23.416,23.416,0,0,0,9.313-7.509.537.537,0,0,0-.084-.649c-3.634-3.563-10.324,4.175-13.428,5.6l.736.733c1.744-3.336,4.677-5.809,7.527-8.2l-.845-.65a7.978,7.978,0,0,1-2.467,2.649c.253.252.507.506.761.758,5.78-5.833,12.779-10.113,19.268-15.08,2.9-2.219,5.739-4.516,8.611-6.771,3.112-2.442,6.293-5.565,9.989-7.088l-.523-.9c-4.239,4.141-8.461,8.3-12.888,12.24l.761.758c5.549-6.854,13.5-10.966,20.949-15.42l-.791-.605c-1.47,3.756-7.227,6.089-10.382,8.324-4.674,3.31-8.468,7.69-13.744,10.144l.652.84c9.2-8.247,19.91-14.449,30.189-21.23a.536.536,0,0,0-.543-.925c-9.6,4.9-17.4,12.381-25.7,19.089l.76.758c8.876-7.277,18.744-13.206,27.833-20.2.507-.39-.138-1.1-.652-.84-8.811,4.378-15.685,11.526-23.829,16.908l.652.842c3.523-3.661,8.256-6.088,12.49-8.838,4.872-3.166,9.758-6.306,14.5-9.67.557-.4.031-1.32-.543-.925-6.542,4.5-12.677,9.565-19.431,13.761l.543.925c7.456-5.594,15.287-10.677,22.576-16.494.49-.39-.135-1.123-.651-.84a45.848,45.848,0,0,0-6.361,4.464c-.474.375.152,1.19.652.842a81.512,81.512,0,0,0,8.377-6.217.539.539,0,0,0-.652-.842c-1,.659-1.975,1.35-3,1.98a.537.537,0,0,0,.543.926A55.168,55.168,0,0,0,763.443,7.9c.5-.4-.136-1.1-.651-.842-10.053,5.065-18.715,12.339-28.426,17.971l.543.925c5.841-3.887,12.471-6.435,18.035-10.751.415-.322-.037-1.093-.523-.9A53.69,53.69,0,0,0,740.7,21.04c-2.652,1.984-6.8,6.6-10.357,6.664l.38.915c5.375-4.693,11.6-8.147,17.478-12.151.565-.385.052-1.293-.543-.925-8.023,4.96-15.844,10.226-23.627,15.551l.652.84c4.649-4.063,10.4-6.476,15.293-10.207.532-.406.06-1.3-.543-.925-4.645,2.9-8.716,6.627-13.006,10.011-2.705,2.134-6.856,4.992-7.151,8.767a.542.542,0,0,0,.681.516c4.761-1.264,8.347-4.634,12.43-7.2l-.652-.842c-4.359,4.726-9.765,8.28-14.355,12.763-.428.418.131,1.181.652.842,3.46-2.251,6.286-5.806,10.393-6.856l-.524-.9c-3.741,3.689-7.954,6.842-11.781,10.436l.845.649c2.786-5.42,8.907-8.195,13.258-12.207,5.63-5.191,10.372-11.205,16.738-15.58q-.368-.368-.736-.734c-2.446,3.239-6.07,5.376-9.241,7.849-3.321,2.59-6.671,5.139-9.881,7.867l.761.758c6.269-6.083,13.989-10.387,20.26-16.468.425-.413-.145-1.2-.652-.842-6.887,4.919-13.366,10.351-19.929,15.683-.537.437.228,1.19.76.758,6.493-5.274,12.9-10.649,19.711-15.516l-.652-.842c-6.27,6.082-13.99,10.385-20.26,16.469-.5.488.241,1.2.761.758,3.806-3.236,7.769-6.327,11.761-9.333,2.705-2.036,5.467-3.87,7.529-6.6.323-.428-.308-1.027-.736-.733-6.441,4.426-11.259,10.494-16.956,15.748-4.4,4.06-10.593,6.913-13.427,12.423a.54.54,0,0,0,.845.65c3.828-3.6,8.041-6.747,11.782-10.436a.54.54,0,0,0-.524-.9c-4.248,1.088-7.091,4.649-10.65,6.965l.652.842c4.59-4.484,10-8.037,14.355-12.764.4-.432-.115-1.178-.652-.841-2.875,1.8-5.473,4.108-8.5,5.667-.664.343-2.4,1.494-2.56.744-.129-.6.582-1.233.878-1.657a19.279,19.279,0,0,1,3.253-3.3,125.068,125.068,0,0,1,15.055-11.7l-.543-.925c-4.965,3.788-10.79,6.25-15.511,10.375-.454.4.146,1.187.652.841,7.783-5.324,15.6-10.589,23.627-15.549l-.543-.925c-5.95,4.056-12.253,7.566-17.7,12.318a.541.541,0,0,0,.381.915c2.885-.055,5.886-2.929,8.027-4.569,4.481-3.434,9.061-6.715,14.338-8.866l-.524-.9c-5.487,4.257-12.056,6.751-17.817,10.584a.537.537,0,0,0,.543.925c9.711-5.632,18.373-12.906,28.426-17.97l-.652-.842a53,53,0,0,1-5.565,4.039l.543.926c1.022-.631,1.993-1.322,3-1.981q-.326-.419-.652-.842a79.28,79.28,0,0,1-8.159,6.051l.652.841a44.193,44.193,0,0,1,6.143-4.3l-.652-.841c-7.218,5.759-14.976,10.787-22.359,16.327-.537.4-.06,1.3.543.925,6.754-4.2,12.889-9.26,19.431-13.761l-.543-.925c-5.134,3.643-10.437,7.032-15.716,10.462-3.937,2.558-8.208,4.8-11.489,8.212-.409.425.126,1.189.652.842,8.143-5.381,15.023-12.532,23.829-16.908l-.652-.842c-9.09,7-18.955,12.924-27.832,20.2-.537.439.229,1.187.76.758C732.854,29.674,740.584,22.26,750.1,17.4l-.543-.925c-10.356,6.833-21.135,13.088-30.406,21.4-.483.433.131,1.084.651.841,5.865-2.727,10.126-7.757,15.463-11.284,2.952-1.95,7.791-4.331,9.158-7.824.176-.448-.414-.83-.79-.605-7.528,4.5-15.56,8.663-21.167,15.587a.538.538,0,0,0,.761.758c4.426-3.945,8.648-8.1,12.888-12.242.358-.349-.007-1.108-.523-.9a31.25,31.25,0,0,0-7.036,4.679c-3.78,2.945-7.515,5.947-11.305,8.881-6.708,5.192-14,9.6-20,15.656-.5.5.232,1.177.761.758a13.669,13.669,0,0,0,2.635-2.866c.383-.524-.41-1.014-.845-.649-2.929,2.454-5.9,4.987-7.7,8.415a.542.542,0,0,0,.736.734c2.691-1.236,4.845-3.523,7.42-4.982.637-.361,1.833-1.3,2.541-1.173,1.876.33.545,1.643-.192,2.347a24,24,0,0,1-6.657,4.517l.79.605c.894-2.385,2.3-4.5,3.134-6.9a.54.54,0,0,0-.983-.413,25.391,25.391,0,0,0-2.692,8.718.539.539,0,0,0,.681.516c3.568-1.5,5.224-5.382,8.8-6.881l-.608-.787c-1.468,3.4-4.824,5.63-7.451,8.11l.76.757c3.9-4.091,8.278-7.7,11.841-12.1.361-.446-.089-1.175-.652-.842-5.36,3.175-10.445,6.734-14.478,11.523-.37.441.1,1.185.652.842,1.822-1.134,3.155-3.028,4.567-4.6,2.62-2.921,5.511-5.6,8.263-8.395.411-.418-.145-1.214-.652-.842-5.409,3.964-9.789,9.083-15.131,13.124l.736.732c3.6-5.927,8.557-10.73,13.822-15.189l-.76-.758c-3.131,2.916-6.776,5.036-10.182,7.585-1.657,1.241-3.27,2.979-5.283,3.623l.607.787c3.315-5.5,8.123-12.1,14.461-14.289l-.524-.9c-3.829,3.83-7.933,7.347-12.078,10.83l.76.758c5.81-5.928,11.716-11.947,19.1-15.922l-.652-.842a28.884,28.884,0,0,1-7.577,4.89l.652.842c4.088-3.8,9.207-6.062,13.767-9.205a.537.537,0,0,0-.543-.925c-3.668,2.038-6.633,4.958-9.726,7.745-.446.4.147,1.195.652.842,5.375-3.769,11.079-7.042,16.173-11.2.474-.387-.141-1.164-.652-.842-6.207,3.923-11.451,9.1-17.5,13.244l.652.842c4.3-3.406,8.874-6.412,13.334-9.6,2.976-2.126,5.649-4.793,8.85-6.575l-.652-.842c-6.193,5.046-12.655,9.766-19.065,14.535-3.258,2.423-7.406,4.56-9.588,8.094a.541.541,0,0,0,.736.734c6.127-3.64,11.767-7.958,17.489-12.182,4.5-3.323,9.618-6.22,13.276-10.51.373-.437-.1-1.19-.651-.842-7.251,4.629-14.26,9.561-21.25,14.566-4.182,3-9.142,5.729-11.981,10.153a.54.54,0,0,0,.736.732c7.248-4.378,13.723-9.8,20.482-14.857,5.443-4.076,10.97-9.194,17.361-11.7l-.523-.9c-5.6,5.033-11.569,9.612-17.368,14.406-3.655,3.022-8.461,5.791-10.781,10.041-.239.436.272,1.062.736.733a207.015,207.015,0,0,0,17.369-14.251c5.721-5.071,11.436-10.91,18.054-14.8l-.652-.842C733.97,27.957,723.139,36,713.642,45.587c-.453.456.117,1.085.651.841,3.033-1.381,5.106-3.632,7.641-5.727q4.195-3.465,8.382-6.941c5.916-4.911,11.838-9.835,18.395-13.888l-.652-.842c-4.33,5.425-10.734,8.543-16.258,12.567-6.463,4.707-12.632,9.877-18.712,15.059-.531.453.231,1.185.761.758,10.346-8.349,20.388-17.088,31.4-24.574L744.6,22c-2.416,2.891-6.725,4.848-9.823,7.075-3.349,2.407-6.637,4.895-9.926,7.383-5.723,4.328-11.367,8.737-16.143,14.118a.541.541,0,0,0,.523.9c3.3-.987,6-3.9,8.5-6.127,4.635-4.129,9.671-7.851,14.51-11.739l-.761-.757C726.95,38.5,720.73,42.289,715.17,46.824c-3.15,2.57-6.106,5.34-9.064,8.122-1.992,1.874-4.3,3.241-5.154,5.924-.174.547.518.845.9.521,7.254-6.175,14.165-12.733,21.336-19,.521-.456-.242-1.211-.761-.758" transform="translate(-281.657 -2.872)"/>
          </g>
        </g>
      </g>
    </g>
  </g>
</svg>
